<?xml version="1.0" standalone="no"?>
<!DOCTYPE svg PUBLIC "-//W3C//DTD SVG 20010904//EN"
 "http://www.w3.org/TR/2001/REC-SVG-20010904/DTD/svg10.dtd">
<svg version="1.0" xmlns="http://www.w3.org/2000/svg"
 width="157.000000pt" height="165.000000pt" viewBox="0 0 157.000000 165.000000"
 preserveAspectRatio="xMidYMid meet">

<g transform="translate(0.000000,165.000000) scale(0.100000,-0.100000)"
fill="#000000" stroke="none">
<path d="M282 1498 c-9 -9 -12 -142 -12 -535 l0 -523 45 0 45 0 0 195 c0 182
1 195 19 205 28 15 294 13 309 -2 9 -9 12 -68 12 -205 l0 -193 45 0 45 0 0
529 c0 582 5 541 -61 541 -28 0 -29 -2 -29 -45 0 -35 -6 -52 -25 -70 -23 -24
-30 -25 -139 -25 -63 0 -122 3 -131 6 -23 9 -45 57 -45 99 0 33 -2 35 -33 35
-18 0 -38 -5 -45 -12z m415 -264 c10 -28 -18 -34 -167 -34 -147 0 -175 6 -163
36 4 11 38 14 164 14 137 0 160 -2 166 -16z m-8 -83 c8 -5 11 -16 8 -25 -6
-14 -29 -16 -166 -16 -161 0 -186 5 -161 35 10 12 43 15 159 15 80 0 152 -4
160 -9z"/>
<path d="M412 1468 l3 -43 115 0 115 0 3 43 3 42 -121 0 -121 0 3 -42z"/>
<path d="M840 1180 l0 -190 34 0 c72 0 134 43 167 115 23 49 24 80 4 136 -27
75 -98 129 -170 129 l-35 0 0 -190z"/>
<path d="M1104 1214 c3 -9 6 -31 6 -50 l0 -34 195 0 c182 0 196 1 215 20 25
25 25 42 2 63 -16 15 -47 17 -221 17 -181 0 -202 -2 -197 -16z"/>
<path d="M1065 1048 c-10 -18 -19 -36 -20 -40 0 -14 379 -268 401 -268 12 0
27 7 34 15 28 34 3 59 -185 188 -103 71 -192 130 -198 133 -7 2 -21 -11 -32
-28z"/>
<path d="M947 957 c-21 -6 -36 -16 -35 -23 2 -7 53 -101 113 -208 119 -212
139 -233 176 -187 16 19 17 27 6 50 -22 52 -210 381 -216 380 -3 -1 -23 -6
-44 -12z"/>
<path d="M410 620 l0 -180 120 0 120 0 0 180 0 180 -120 0 -120 0 0 -180z"/>
<path d="M200 305 l0 -85 -35 0 c-28 0 -35 -4 -35 -20 0 -20 5 -20 643 -18
563 3 642 5 642 18 0 13 -38 15 -272 18 l-273 2 0 85 0 85 -335 0 -335 0 0
-85z"/>
</g>
</svg>
