<?xml version="1.0" standalone="no"?>
<!DOCTYPE svg PUBLIC "-//W3C//DTD SVG 20010904//EN"
 "http://www.w3.org/TR/2001/REC-SVG-20010904/DTD/svg10.dtd">
<svg version="1.0" xmlns="http://www.w3.org/2000/svg"
 width="259.000000pt" height="259.000000pt" viewBox="0 0 259.000000 259.000000"
 preserveAspectRatio="xMidYMid meet">

<g transform="translate(0.000000,259.000000) scale(0.100000,-0.100000)"
fill="#000000" stroke="none">
<path d="M965 2294 c-109 -13 -217 -52 -272 -98 -40 -33 -80 -126 -93 -212
-14 -103 -12 -261 5 -328 14 -55 67 -146 84 -146 5 0 11 -17 14 -37 11 -79 48
-156 103 -210 49 -49 52 -55 43 -82 l-10 -28 -122 -6 c-137 -7 -171 -15 -273
-63 -88 -42 -171 -121 -210 -201 l-29 -58 0 -265 0 -265 864 -3 c652 -1 867 1
878 10 12 9 14 53 11 252 -4 278 -11 309 -87 402 -58 72 -119 114 -223 154
-70 27 -98 32 -207 37 -74 4 -129 11 -133 17 -16 24 -6 51 32 84 50 42 99 136
107 205 4 34 17 69 39 102 53 82 69 150 69 305 0 177 -14 222 -99 305 -43 43
-80 68 -126 87 -95 39 -243 56 -365 42z m226 -78 c135 -24 218 -73 262 -153
50 -94 59 -251 20 -368 l-17 -50 -13 125 c-14 139 -23 170 -52 170 -23 0 -132
-35 -236 -76 -54 -21 -88 -27 -150 -28 -89 -1 -119 10 -185 70 -55 50 -78 44
-102 -26 -11 -30 -22 -98 -25 -150 l-7 -95 -13 44 c-34 118 -12 354 40 433 63
93 278 139 478 104z m176 -393 c4 -21 7 -121 8 -223 0 -172 -2 -188 -22 -226
-26 -48 -72 -90 -128 -115 -31 -14 -65 -19 -146 -19 -93 0 -111 3 -157 26 -66
33 -119 94 -138 161 -17 58 -26 378 -11 401 7 10 14 8 35 -6 52 -36 130 -62
184 -62 49 0 281 65 318 90 31 20 49 11 57 -27z m-245 -650 c103 5 106 5 112
-16 3 -12 6 -25 6 -29 0 -5 -118 -97 -158 -121 -8 -6 -29 5 -60 30 -26 22 -62
49 -79 62 -36 25 -37 28 -24 64 9 24 12 25 53 15 24 -5 91 -8 150 -5z m-420
-135 c10 -18 47 -100 83 -183 36 -82 71 -155 77 -162 20 -24 52 -10 77 35 9
15 11 16 26 1 14 -14 14 -28 0 -160 -8 -79 -17 -159 -20 -176 l-6 -33 -153 0
-153 0 -7 53 c-3 28 -6 83 -6 120 l0 68 -27 -3 -28 -3 -5 -115 -5 -115 -50 0
-50 0 -5 115 c-4 100 -7 115 -23 118 -39 8 -47 -15 -47 -130 l0 -109 -57 3
-58 3 0 215 0 215 34 63 c41 76 92 121 186 168 58 29 175 57 195 48 3 -1 13
-17 22 -36z m191 10 c111 -82 126 -94 127 -101 0 -9 -118 -157 -126 -157 -3 0
-14 21 -26 48 -11 26 -38 86 -59 135 -21 48 -39 92 -39 97 0 6 18 10 39 10 28
0 51 -9 84 -32z m487 18 c0 -13 -23 -69 -81 -194 -16 -35 -29 -68 -29 -73 0
-5 -3 -9 -8 -9 -9 0 -132 146 -132 157 1 4 38 36 83 70 71 54 88 63 125 63 29
0 42 -4 42 -14z m258 -24 c95 -37 179 -111 228 -202 17 -31 19 -63 22 -258 l3
-223 -58 3 -58 3 -3 140 c-2 115 -5 142 -19 152 -11 9 -21 9 -34 2 -17 -9 -19
-24 -19 -154 l0 -145 -50 0 -50 0 -2 162 -3 163 -30 0 -30 0 -5 -160 -5 -160
-155 0 -155 0 -7 60 c-35 287 -35 286 -21 303 11 15 15 14 38 -15 51 -64 61
-53 155 167 15 36 42 95 58 131 l31 66 60 -8 c33 -5 82 -17 109 -27z m-488
-241 c0 -3 -17 -28 -36 -55 l-36 -49 -23 29 c-13 16 -30 41 -39 55 -15 25 -14
28 21 69 l37 43 38 -43 c21 -23 38 -45 38 -49z m-56 -199 c9 5 19 8 21 6 4 -4
25 -197 25 -229 0 -17 -8 -19 -59 -19 -33 0 -62 4 -65 9 -6 9 11 203 19 229 3
9 10 10 23 3 11 -6 24 -6 36 1z"/>
<path d="M1877 1943 c-4 -3 -7 -23 -7 -44 0 -33 -4 -41 -32 -55 -18 -9 -43
-25 -56 -35 -23 -17 -24 -17 -55 2 -18 10 -39 19 -47 19 -25 0 -116 -160 -106
-186 3 -8 20 -23 37 -33 30 -19 32 -23 33 -81 1 -59 0 -61 -36 -85 -21 -14
-38 -31 -38 -38 0 -18 76 -151 95 -167 13 -11 22 -10 54 8 l38 22 26 -20 c14
-12 40 -25 57 -31 27 -10 30 -15 30 -54 0 -24 6 -47 12 -52 13 -7 198 -7 206
2 2 2 7 23 9 47 5 40 10 45 61 75 l55 33 34 -21 c18 -12 39 -19 47 -16 21 8
96 141 96 170 0 21 -8 31 -35 44 -34 16 -35 18 -35 79 0 61 1 63 36 85 32 19
36 26 31 54 -7 43 -78 159 -100 163 -9 2 -30 -6 -46 -17 l-30 -21 -36 24 c-20
14 -45 28 -56 31 -12 4 -19 16 -19 33 0 71 -2 72 -114 72 -57 0 -106 -3 -109
-7z m137 -59 c10 -4 16 -18 16 -40 0 -30 5 -35 51 -59 29 -14 65 -37 81 -50
28 -24 30 -24 69 -8 22 8 41 14 42 12 2 -2 11 -17 21 -33 l19 -30 -29 -23
c-28 -22 -29 -25 -30 -123 -1 -100 0 -101 27 -121 28 -20 28 -20 11 -55 -13
-28 -20 -34 -37 -29 -55 18 -67 17 -103 -8 -20 -14 -55 -34 -77 -44 -35 -16
-41 -23 -45 -58 -5 -39 -6 -40 -47 -43 l-43 -3 0 41 c0 40 -1 42 -57 66 -32
14 -68 35 -80 46 -21 20 -34 20 -89 3 -16 -5 -24 1 -40 30 -20 38 -21 36 25
64 10 6 13 34 13 106 1 97 0 99 -28 121 -28 23 -28 23 -11 59 19 39 23 41 63
21 30 -16 51 -10 89 25 11 10 38 26 60 35 46 19 55 29 55 65 0 14 3 29 7 32 8
9 46 9 67 1z"/>
<path d="M1915 1708 c-16 -6 -47 -26 -67 -46 -118 -112 -32 -322 132 -322 45
0 104 21 133 48 52 47 73 154 43 225 -34 82 -148 127 -241 95z m150 -91 c59
-59 58 -118 -1 -173 -61 -58 -120 -52 -178 16 -32 38 -34 92 -7 134 26 40 57
55 110 56 36 0 49 -6 76 -33z"/>
</g>
</svg>
