<?xml version="1.0" standalone="no"?>
<!DOCTYPE svg PUBLIC "-//W3C//DTD SVG 20010904//EN"
 "http://www.w3.org/TR/2001/REC-SVG-20010904/DTD/svg10.dtd">
<svg version="1.0" xmlns="http://www.w3.org/2000/svg"
 width="259.000000pt" height="259.000000pt" viewBox="0 0 259.000000 259.000000"
 preserveAspectRatio="xMidYMid meet">

<g transform="translate(0.000000,259.000000) scale(0.100000,-0.100000)"
fill="#000000" stroke="none">
<path d="M940 2246 c-197 -85 -305 -137 -305 -147 0 -14 53 -44 163 -91 l62
-27 0 -78 c0 -86 -29 -303 -41 -303 -16 0 -31 -72 -24 -123 8 -62 38 -135 59
-143 8 -3 29 -35 46 -71 62 -134 153 -238 252 -290 46 -24 65 -28 138 -28 68
0 93 5 125 22 100 53 181 142 247 268 22 44 52 93 64 108 47 57 68 179 40 240
-16 35 -24 103 -32 282 l-6 120 112 49 c82 36 110 53 108 65 -2 10 -107 61
-308 148 -245 106 -314 132 -350 132 -35 0 -111 -29 -350 -133z m200 -571
c139 -59 168 -59 302 0 56 25 110 45 120 45 22 0 63 -60 84 -122 9 -28 22 -48
30 -48 21 0 36 -49 29 -95 -6 -46 -39 -105 -57 -106 -7 0 -30 -36 -51 -80
-139 -290 -393 -332 -563 -93 -24 34 -54 84 -65 110 -12 27 -34 59 -50 72 -52
42 -66 147 -24 186 14 13 25 29 25 35 0 36 81 140 110 141 3 0 52 -20 110 -45z"/>
<path d="M686 2011 c-17 -19 -18 -24 -6 -46 11 -21 11 -57 1 -215 -10 -148
-10 -198 -1 -227 19 -59 27 -60 44 -4 13 45 13 72 1 237 -12 163 -12 189 1
209 13 20 13 24 -3 44 l-18 23 -19 -21z"/>
<path d="M820 909 c-126 -10 -197 -37 -259 -99 -56 -56 -91 -115 -126 -212
-58 -162 -16 -242 161 -303 220 -76 719 -106 1079 -65 269 30 446 96 490 180
38 74 -5 229 -101 361 -66 90 -141 124 -313 139 -103 9 -104 9 -123 -15 -57
-72 -191 -110 -365 -102 -145 6 -225 31 -285 88 -23 22 -46 38 -52 38 -6 -1
-54 -5 -106 -10z"/>
</g>
</svg>
