<?xml version="1.0" standalone="no"?>
<!DOCTYPE svg PUBLIC "-//W3C//DTD SVG 20010904//EN"
 "http://www.w3.org/TR/2001/REC-SVG-20010904/DTD/svg10.dtd">
<svg version="1.0" xmlns="http://www.w3.org/2000/svg"
 width="324.000000pt" height="252.000000pt" viewBox="0 0 324.000000 252.000000"
 preserveAspectRatio="xMidYMid meet">

<g transform="translate(0.000000,252.000000) scale(0.100000,-0.100000)"
fill="#000000" stroke="none">
<path d="M1565 2376 c-145 -35 -269 -145 -325 -286 -113 -287 68 -618 360
-659 193 -26 381 73 470 248 40 80 52 134 52 231 1 305 -274 535 -557 466z"/>
<path d="M682 1647 c-23 -7 -31 -15 -27 -26 2 -9 36 -131 75 -271 39 -140 73
-263 76 -272 4 -15 8 -15 39 -2 42 17 94 18 149 2 59 -18 138 -99 155 -161 33
-118 -30 -241 -149 -289 l-34 -14 84 -27 c93 -30 252 -66 287 -67 l23 0 2 278
3 277 65 -3 c122 -7 258 -42 368 -95 l62 -30 0 -228 0 -229 31 0 30 0 -3 227
-3 228 50 27 c91 50 215 83 392 103 l52 6 3 -88 3 -87 34 -10 c34 -10 104 -71
128 -111 11 -18 12 -17 12 16 1 19 -6 60 -15 90 -50 169 -179 306 -389 411
-72 36 -240 98 -267 98 -9 0 -62 -37 -119 -81 -57 -45 -109 -86 -116 -91 -8
-7 -46 17 -123 79 -61 48 -118 89 -126 91 -21 5 -168 -44 -261 -88 -98 -46
-160 -87 -231 -154 -29 -27 -54 -47 -57 -45 -2 3 -39 127 -82 277 -42 150 -79
272 -82 271 -3 -1 -21 -6 -39 -12z"/>
<path d="M862 1017 c-145 -55 -148 -262 -5 -323 156 -67 305 116 210 257 -42
63 -135 92 -205 66z"/>
<path d="M2295 836 c-75 -34 -120 -128 -97 -205 35 -114 166 -163 263 -98 77
52 99 136 60 224 -36 77 -144 115 -226 79z"/>
</g>
</svg>
