<?xml version="1.0" encoding="UTF-8"?>
<svg version="1.1" xmlns="http://www.w3.org/2000/svg" width="261" height="261">
<path d="M0 0 C9.97546246 0.24435571 18.63298307 5.10463805 25.9609375 11.69140625 C33.23334442 19.7667116 36.44186372 28.94025249 36.30908203 39.67504883 C35.70407319 49.48261891 30.77290397 58.63231977 24.06640625 65.734375 C20.61213687 68.71641515 17.2067155 71.06640625 12.5234375 71.06640625 C12.1934375 71.72640625 11.8634375 72.38640625 11.5234375 73.06640625 C8.0584375 74.05640625 8.0584375 74.05640625 4.5234375 75.06640625 C4.5234375 80.67640625 4.5234375 86.28640625 4.5234375 92.06640625 C6.8334375 92.06640625 9.1434375 92.06640625 11.5234375 92.06640625 C18.72547107 93.25542123 24.31550877 96.55301197 30.2734375 100.640625 C32.36104795 102.24482671 32.36104795 102.24482671 34.5234375 102.06640625 C38.48430084 98.98573476 42.0181767 95.66154553 45.5234375 92.06640625 C47.19010417 90.39973958 48.85677083 88.73307292 50.5234375 87.06640625 C51.3896875 88.21109375 51.3896875 88.21109375 52.2734375 89.37890625 C54.24046843 91.72841542 56.00820494 93.3596413 58.5234375 95.06640625 C56.92922014 99.84905834 53.1589492 102.58052418 49.3359375 105.69140625 C46.40463404 107.9436296 46.40463404 107.9436296 44.5234375 111.06640625 C43.8634375 111.06640625 43.2034375 111.06640625 42.5234375 111.06640625 C43.44576172 112.46439453 43.44576172 112.46439453 44.38671875 113.890625 C54.12396498 129.05883685 57.09897699 144.76602335 53.390625 162.50170898 C51.6996407 169.59528747 49.15533372 175.38461355 44.5234375 181.06640625 C44.00910156 181.80375 43.49476563 182.54109375 42.96484375 183.30078125 C42.48917969 183.8834375 42.01351562 184.46609375 41.5234375 185.06640625 C40.8634375 185.06640625 40.2034375 185.06640625 39.5234375 185.06640625 C39.15605469 185.93652344 39.15605469 185.93652344 38.78125 186.82421875 C33.86725126 195.58395564 23.7239135 198.90376307 14.76953125 201.9375 C11.70584393 202.73879884 11.70584393 202.73879884 10.5234375 204.06640625 C6.84389093 204.34902009 3.15002661 204.29833355 -0.5390625 204.31640625 C-1.56451172 204.33703125 -2.58996094 204.35765625 -3.64648438 204.37890625 C-10.0344382 204.41160211 -14.65972094 203.7197024 -20.4765625 201.06640625 C-21.78947266 200.50179687 -21.78947266 200.50179687 -23.12890625 199.92578125 C-33.47319616 194.90393794 -45.09641482 187.14560332 -49.4765625 176.06640625 C-49.4765625 175.40640625 -49.4765625 174.74640625 -49.4765625 174.06640625 C-50.1365625 174.06640625 -50.7965625 174.06640625 -51.4765625 174.06640625 C-52.12620273 172.17187404 -52.77111365 170.27571976 -53.4140625 168.37890625 C-53.77371094 167.32316406 -54.13335937 166.26742187 -54.50390625 165.1796875 C-58.67103041 151.84154311 -57.71262426 135.9528522 -52.4765625 123.06640625 C-50.40304466 119.48770093 -48.13113033 116.23548301 -45.4765625 113.06640625 C-49.80548495 106.75854783 -54.38674693 101.76426397 -60.4765625 97.06640625 C-58.9188317 93.24288519 -56.56060992 90.77435032 -53.4765625 88.06640625 C-52.4865625 88.06640625 -51.4965625 88.06640625 -50.4765625 88.06640625 C-49.08752983 89.68694437 -47.76323422 91.36345838 -46.4765625 93.06640625 C-43.07446912 96.73708595 -39.68281806 99.42526904 -35.4765625 102.06640625 C-34.85007812 101.70546875 -34.22359375 101.34453125 -33.578125 100.97265625 C-32.76085937 100.50859375 -31.94359375 100.04453125 -31.1015625 99.56640625 C-29.88339844 98.8703125 -29.88339844 98.8703125 -28.640625 98.16015625 C-26.4765625 97.06640625 -26.4765625 97.06640625 -24.4765625 97.06640625 C-24.4765625 96.40640625 -24.4765625 95.74640625 -24.4765625 95.06640625 C-22.79254324 94.55480546 -21.10411028 94.05772566 -19.4140625 93.56640625 C-18.47433594 93.28796875 -17.53460938 93.00953125 -16.56640625 92.72265625 C-13.4765625 92.06640625 -13.4765625 92.06640625 -6.4765625 92.06640625 C-6.4765625 86.12640625 -6.4765625 80.18640625 -6.4765625 74.06640625 C-8.1265625 74.06640625 -9.7765625 74.06640625 -11.4765625 74.06640625 C-17.62433681 71.49600061 -23.13786079 68.1707612 -27.4765625 63.06640625 C-28.3015625 62.17953125 -29.1265625 61.29265625 -29.9765625 60.37890625 C-36.39890881 52.411945 -39.13037404 43.99387112 -38.2890625 33.79296875 C-36.4904837 23.41367024 -30.91050613 13.39891576 -22.4765625 7.06640625 C-14.89682148 2.39802128 -8.81035198 0.23623972 0 0 Z M-24.0390625 17.96875 C-29.47903085 25.90696469 -30.50649842 34.65492282 -29.4765625 44.06640625 C-28.7072314 47.24484274 -27.71351742 50.02555874 -26.4765625 53.06640625 C-26.1465625 53.06640625 -25.8165625 53.06640625 -25.4765625 53.06640625 C-25.31800781 52.3909375 -25.15945312 51.71546875 -24.99609375 51.01953125 C-23.5620347 45.53683035 -22.60261861 42.1143315 -17.4765625 39.06640625 C-17.8065625 38.07640625 -18.1365625 37.08640625 -18.4765625 36.06640625 C-19.42255325 23.45926028 -19.42255325 23.45926028 -15.4765625 18.06640625 C-11.27112912 13.86097287 -7.69739009 11.92766391 -1.7265625 11.81640625 C3.59099842 11.89380888 8.02382964 12.69015566 12.02734375 16.49609375 C15.9207146 20.95516805 16.66270034 24.23458604 16.6484375 30.00390625 C16.65230469 31.56431641 16.65230469 31.56431641 16.65625 33.15625 C16.54275773 35.64306596 16.24272321 37.69733032 15.5234375 40.06640625 C16.2865625 40.35515625 17.0496875 40.64390625 17.8359375 40.94140625 C21.86507415 44.12723523 22.40006153 48.19844369 23.5234375 53.06640625 C27.572199 49.01764475 27.68939391 43.66236708 27.8359375 38.19140625 C27.746223 32.68431602 26.73370196 28.09526483 24.5234375 23.06640625 C24.25660156 22.40898438 23.98976562 21.7515625 23.71484375 21.07421875 C20.6230036 15.86370781 14.62544856 12.01826031 9.2109375 9.56640625 C-2.82696553 7.93414821 -15.43758263 8.23005524 -24.0390625 17.96875 Z M-11.4765625 19.06640625 C-14.21146449 22.79759397 -14.88675761 25.46757835 -14.8515625 30.06640625 C-14.85929687 31.07703125 -14.86703125 32.08765625 -14.875 33.12890625 C-14.4200075 36.48336077 -13.46742901 38.35029551 -11.4765625 41.06640625 C-6.70516538 44.36094236 -2.10454001 44.94577774 3.5234375 44.06640625 C7.10993112 42.80298236 9.78695336 41.15512193 11.9609375 37.94140625 C13.0641401 32.30281518 13.19467107 27.11739771 11.3984375 21.62890625 C9.00897343 18.36330535 7.36861742 17.34813289 3.5234375 16.06640625 C-2.14189623 15.33539545 -6.66176066 15.74190022 -11.4765625 19.06640625 Z M-38.3515625 119.37890625 C-45.60627572 129.31925849 -48.60828235 140.88103907 -47.4765625 153.06640625 C-46.46271476 157.53153879 -45.07846799 161.77977414 -43.4765625 166.06640625 C-43.19941406 166.80890625 -42.92226562 167.55140625 -42.63671875 168.31640625 C-38.64149987 177.44833512 -31.10740528 184.39694807 -22.4765625 189.06640625 C-21.6721875 189.62328125 -20.8678125 190.18015625 -20.0390625 190.75390625 C-10.74344956 195.51507386 1.85689567 195.61428595 11.7734375 192.94140625 C24.52240405 188.40184079 34.1016368 181.06812524 40.5234375 169.06640625 C41.77062802 165.78247316 42.66563401 162.46921613 43.5234375 159.06640625 C44.11125 157.30296875 44.11125 157.30296875 44.7109375 155.50390625 C46.33977301 148.61267909 45.79513584 142.76791635 43.5234375 136.06640625 C43.17345703 134.72255859 43.17345703 134.72255859 42.81640625 133.3515625 C39.5651897 121.81642432 31.9481083 112.11731927 21.5234375 106.06640625 C0.31256397 96.08481871 -23.5091613 101.78554276 -38.3515625 119.37890625 Z " fill="#212222" transform="translate(131.4765625,27.93359375)"/>
<path d="M0 0 C1.22589844 -0.00515625 2.45179688 -0.0103125 3.71484375 -0.015625 C6.82571404 0.23121185 8.59547015 0.37291207 11.0625 2.25 C11.71484375 4.08984375 11.71484375 4.08984375 12 6.1875 C12.63918254 9.14170502 12.89187689 10.07404491 15.0625 12.3125 C18.89074455 13.50882642 21.76737283 12.95735193 25.66015625 12.18359375 C28.0625 12.25 28.0625 12.25 30.16796875 13.9140625 C32.07387064 16.26401989 33.73653732 18.60467228 35.3125 21.1875 C36.09367187 22.43853516 36.09367187 22.43853516 36.890625 23.71484375 C38.17953964 26.50319575 38.44432105 28.21607059 38.0625 31.25 C36.01825462 33.22610386 34.9448175 34.25 32.0625 34.25 C32.12250106 35.8760287 32.2112885 37.50101549 32.3125 39.125 C32.35890625 40.02992188 32.4053125 40.93484375 32.453125 41.8671875 C32.75476563 43.04667969 32.75476563 43.04667969 33.0625 44.25 C35.03232481 45.37295743 35.03232481 45.37295743 37.0625 46.25 C38.48932927 52.39634146 38.48932927 52.39634146 37.0625 55.25 C36.4025 55.25 35.7425 55.25 35.0625 55.25 C34.69125 56.549375 34.69125 56.549375 34.3125 57.875 C32.97114742 61.49665198 31.45697572 64.22169247 29.0625 67.25 C26.07059773 68.60995558 25.26103006 68.31617669 22.0625 67.25 C22.0625 66.59 22.0625 65.93 22.0625 65.25 C21.340625 65.53875 20.61875 65.8275 19.875 66.125 C17.27083333 67.16666667 14.66666667 68.20833333 12.0625 69.25 C12.10375 70.178125 12.145 71.10625 12.1875 72.0625 C12.0625 75.25 12.0625 75.25 10.0625 78.25 C8.12304687 78.63818359 8.12304687 78.63818359 5.78125 78.6484375 C4.51861328 78.65423828 4.51861328 78.65423828 3.23046875 78.66015625 C2.35003906 78.64855469 1.46960938 78.63695312 0.5625 78.625 C-0.31792969 78.63660156 -1.19835937 78.64820313 -2.10546875 78.66015625 C-3.36810547 78.65435547 -3.36810547 78.65435547 -4.65625 78.6484375 C-5.81543945 78.64336182 -5.81543945 78.64336182 -6.99804688 78.63818359 C-8.9375 78.25 -8.9375 78.25 -10.9375 75.25 C-11.0625 72.0625 -11.0625 72.0625 -10.9375 69.25 C-11.845 68.96125 -12.7525 68.6725 -13.6875 68.375 C-16.25952908 67.48468224 -18.55096766 66.53505587 -20.9375 65.25 C-20.9375 65.91 -20.9375 66.57 -20.9375 67.25 C-23.125 68.0625 -23.125 68.0625 -25.9375 68.25 C-30.90411494 64.55687607 -34.39620791 58.83909601 -36.9375 53.25 C-37.36229221 49.44386182 -37.12837241 48.53630861 -34.9375 45.25 C-33.4525 44.755 -33.4525 44.755 -31.9375 44.25 C-31.6075 40.95 -31.2775 37.65 -30.9375 34.25 C-31.741875 33.940625 -32.54625 33.63125 -33.375 33.3125 C-35.9375 32.25 -35.9375 32.25 -36.9375 31.25 C-36.68591859 25.08625543 -34.51739646 21.18705124 -30.9375 16.25 C-30.36 15.404375 -29.7825 14.55875 -29.1875 13.6875 C-26.00919541 11.65691651 -23.80772465 12.49466455 -20.19140625 13.0546875 C-16.56982851 13.36851573 -14.73652615 12.50287471 -11.9375 10.25 C-11.17978005 8.18731793 -10.76083305 6.26506463 -10.45703125 4.08984375 C-9.07569345 -0.80196154 -4.11681749 -0.0172794 0 0 Z M-10.3125 28.125 C-14.50707721 33.61021636 -14.54424591 38.50729139 -13.9375 45.25 C-12.61016007 49.54433508 -11.39707974 50.9007194 -7.8125 53.625 C-2.95778712 56.06259845 1.93436882 56.2705679 7.0859375 54.58984375 C10.4427719 52.95391812 12.07182715 51.23465534 14 48.0625 C15.62207924 42.24209801 15.95919137 37.55577781 13.75 31.875 C11.25597526 27.99540596 9.43412549 25.99457157 4.875 24.9375 C-0.86382395 23.82525236 -5.58285943 24.39107324 -10.3125 28.125 Z " fill="#1B1C1B" transform="translate(129.9375,135.75)"/>
<path d="M0 0 C0 0.66 0 1.32 0 2 C0.86625 2.2475 1.7325 2.495 2.625 2.75 C10.18781426 5.55104232 14.75735334 10.28695148 19 17 C20.31277662 19.94539337 21.23046489 22.87260932 22 26 C22.226875 26.825 22.45375 27.65 22.6875 28.5 C23.925528 38.40422401 22.92970728 48.61432495 16.8125 56.8125 C12.26252245 62.10317157 6.98281545 68.20441888 0 70 C-0.99 70 -1.98 70 -3 70 C-3 70.66 -3 71.32 -3 72 C-9.78716727 73.80991127 -17.17852898 73.43609916 -24 72 C-24 71.34 -24 70.68 -24 70 C-24.70125 69.896875 -25.4025 69.79375 -26.125 69.6875 C-35.70383503 67.39690901 -41.93131895 60.23911622 -46.9921875 52.15234375 C-51.09062897 43.39947068 -51.58592818 32.41084694 -48.9375 23.125 C-45.87903948 15.50038716 -39.79147174 8.57416476 -33 4 C-29.5625 2.625 -29.5625 2.625 -27 2 C-27 1.34 -27 0.68 -27 0 C-17.75388911 -2.79127876 -9.24611089 -2.79127876 0 0 Z M-33.9375 13.4375 C-39.41209626 20.23927111 -43.7901826 28.69075465 -43.40625 37.6171875 C-42.60885594 42.29421035 -40.82554 46.6398933 -39 51 C-37.72756827 48.52038945 -36.64807624 46.10419407 -35.625 43.5 C-34.08583584 40.18487719 -32.73441311 38.35725269 -30 36 C-30.66 35.01 -31.32 34.02 -32 33 C-32.4140625 30.30078125 -32.4140625 30.30078125 -32.625 27.3125 C-32.69976562 26.31863281 -32.77453125 25.32476562 -32.8515625 24.30078125 C-32.90054688 23.54152344 -32.94953125 22.78226563 -33 22 C-32.34 22 -31.68 22 -31 22 C-30.8040625 21.46890625 -30.608125 20.9378125 -30.40625 20.390625 C-28.25026642 15.2980431 -26.21548666 12.81391884 -21.0703125 10.6875 C-15.29531327 8.76976441 -10.87696813 8.64800703 -5.21875 10.80859375 C-1.0673421 13.03778285 1.72593992 15.8782661 4 20 C5.52189124 26.02703519 5.2096731 31.95163451 4 38 C4.99 38.33 5.98 38.66 7 39 C9.17671203 42.32908899 9.97506953 46.19311539 11 50 C14.29780161 46.98896374 14.93563841 44.86152592 15.2734375 40.33984375 C15.60219222 30.32880601 15.13123928 22.74392457 8.16796875 14.94921875 C0.41915062 7.56720858 -6.73501538 6.41700233 -17.296875 6.6484375 C-23.92086234 7.27729706 -28.83054879 9.19981708 -33.9375 13.4375 Z M-24 17 C-25.30065921 18.93383287 -25.30065921 18.93383287 -26 21 C-26.66 21.99 -27.32 22.98 -28 24 C-28.71095934 29.24332512 -28.39555356 32.02385243 -25.3125 36.375 C-22.8036684 39.3644956 -20.93807515 41.23159509 -17 42 C-12.48841122 42.32225634 -8.95426305 42.28931019 -5 40 C-1.22354194 36.27688174 0.84411678 33.06545263 1.25 27.6875 C0.88186495 22.25750808 -0.57704376 19.31883749 -4.5625 15.625 C-11.06265268 12.55220055 -18.01242388 12.80869672 -24 17 Z " fill="#1B1D1C" transform="translate(62,58)"/>
<path d="M0 0 C0 0.66 0 1.32 0 2 C0.825 2.185625 1.65 2.37125 2.5 2.5625 C11.29353718 6.17413134 18.03580828 14.38655891 21.87890625 22.9609375 C24.75558191 32.49621205 23.46964273 42.85088256 20 52 C19.34 52 18.68 52 18 52 C17.835 52.825 17.67 53.65 17.5 54.5 C14.17316162 62.26262289 7.6386542 66.89275083 0 70 C-0.99 70 -1.98 70 -3 70 C-3 70.66 -3 71.32 -3 72 C-9.78716727 73.80991127 -17.17852898 73.43609916 -24 72 C-24 71.34 -24 70.68 -24 70 C-24.825 69.95875 -25.65 69.9175 -26.5 69.875 C-34.60178836 67.84955291 -41.42502828 60.77136302 -46 54 C-51.37578394 42.08569234 -51.03104632 31.95492792 -47.0703125 19.75 C-43.99481894 11.84800194 -37.60517728 5.51008182 -30 2 C-29.01 2 -28.02 2 -27 2 C-27 1.34 -27 0.68 -27 0 C-17.75388911 -2.79127876 -9.24611089 -2.79127876 0 0 Z M-36.52734375 16.12109375 C-42.00739416 23.1128822 -43.47614508 31.24963253 -42.74609375 40.06640625 C-41.89964787 45.04078532 -41.89964787 45.04078532 -39 49 C-38.34 46.69 -37.68 44.38 -37 42 C-36.34 42 -35.68 42 -35 42 C-32.71165977 39.27611403 -32.71165977 39.27611403 -31 36 C-31.19471111 34.05000871 -31.19471111 34.05000871 -32 32 C-32.42508626 25.51743458 -31.93209046 20.54294264 -27.59375 15.30078125 C-23.08798739 10.91191342 -18.27728487 9.12439741 -12 9 C-6.6743536 9.89038151 -2.30768036 11.58975953 1 16 C4.80614818 21.39204325 5.86036158 25.42437933 5 32 C4 35.0625 4 35.0625 3 37 C3.763125 37.66 4.52625 38.32 5.3125 39 C8.56776694 42.20902735 9.61456414 45.69785705 11 50 C14.75885771 46.24114229 15.85360659 41.34229449 16.1796875 36.125 C15.81812355 26.86896277 12.46634917 18.87061414 5.625 12.5 C-7.17456989 2.91417493 -25.63801427 4.58964165 -36.52734375 16.12109375 Z M-25 18 C-28.09423711 22.53821442 -28.7894835 26.65498335 -28 32 C-26.43020534 36.15995584 -24.88276091 38.76447099 -21 41 C-16.26699971 42.79527597 -11.41792909 42.54535734 -6.75 40.75 C-4.03886031 39.02472929 -2.56601236 37.78402197 -1 35 C-1 34.01 -1 33.02 -1 32 C-0.34 32 0.32 32 1 32 C1.53198586 26.0417584 0.88348247 22.55889183 -2.59375 17.6328125 C-5.21633074 14.58770486 -7.43707023 14.16258665 -11.328125 13.7578125 C-17.04630362 13.46676748 -20.63569453 13.95503395 -25 18 Z " fill="#181A19" transform="translate(226,58)"/>
<path d="M0 0 C0 0.66 0 1.32 0 2 C0.86625 2.2475 1.7325 2.495 2.625 2.75 C10.18781426 5.55104232 14.75735334 10.28695148 19 17 C20.31277662 19.94539337 21.23046489 22.87260932 22 26 C22.226875 26.825 22.45375 27.65 22.6875 28.5 C23.7304515 36.84361197 22.29073754 43.94151258 20 52 C19.34 52 18.68 52 18 52 C18.495 50.2365625 18.495 50.2365625 19 48.4375 C20.53227012 41.70414398 20.16270741 34.86082894 20 28 C17.80645574 32.88977574 17.24572314 37.66472754 16.5625 42.94140625 C16.05565924 45.6973529 15.40570265 47.60444841 14 50 C13.01 49.505 13.01 49.505 12 49 C12.32097656 48.34386719 12.64195313 47.68773437 12.97265625 47.01171875 C15.5966773 39.3192464 15.37136277 28.72241439 11.9375 21.3125 C8.282511 15.27560806 3.31224606 10.68851185 -3.5078125 8.47265625 C-12.98028567 6.67615272 -22.58439762 7.04868443 -31 12 C-36.77081019 16.3601677 -40.63923511 23.89850822 -42 31 C-42.55106715 36.63784086 -41.88159548 40.95080448 -39.66796875 46.13671875 C-38.71852841 48.7851576 -38.79165752 51.22210025 -39 54 C-39.66 54 -40.32 54 -41 54 C-38.36588975 58.44775994 -35.9036874 62.53005564 -32 66 C-37.78015943 65.00080395 -41.11328848 60.52384709 -44.4921875 56.00390625 C-50.63143974 46.68604708 -51.33157343 36.23154485 -49.5703125 25.34375 C-47.10616853 16.70403535 -40.3822453 8.97206019 -33 4 C-29.5625 2.625 -29.5625 2.625 -27 2 C-27 1.34 -27 0.68 -27 0 C-17.75388911 -2.79127876 -9.24611089 -2.79127876 0 0 Z " fill="#5F5F5F" transform="translate(62,58)"/>
<path d="M0 0 C9.97546246 0.24435571 18.63298307 5.10463805 25.9609375 11.69140625 C34.13553391 20.76850587 36.40646624 30.47301003 36.02734375 42.31640625 C35.525187 46.0533867 34.72721072 48.05752122 32.5234375 51.06640625 C31.0384375 50.57140625 31.0384375 50.57140625 29.5234375 50.06640625 C29.5234375 49.40640625 29.5234375 48.74640625 29.5234375 48.06640625 C28.8634375 48.06640625 28.2034375 48.06640625 27.5234375 48.06640625 C27.2346875 48.99453125 26.9459375 49.92265625 26.6484375 50.87890625 C25.5234375 54.06640625 25.5234375 54.06640625 23.5234375 57.06640625 C22.8634375 57.06640625 22.2034375 57.06640625 21.5234375 57.06640625 C21.39066406 56.15117188 21.25789063 55.2359375 21.12109375 54.29296875 C20.94449219 53.10445312 20.76789063 51.9159375 20.5859375 50.69140625 C20.41191406 49.50804687 20.23789063 48.3246875 20.05859375 47.10546875 C19.68880964 44.15938244 19.68880964 44.15938244 18.5234375 42.06640625 C21.5234375 43.06640625 21.5234375 43.06640625 22.47265625 44.9140625 C22.71628906 45.64496094 22.95992187 46.37585938 23.2109375 47.12890625 C23.46230469 47.86238281 23.71367187 48.59585938 23.97265625 49.3515625 C24.15441406 49.91746094 24.33617187 50.48335937 24.5234375 51.06640625 C27.65821165 42.44577735 27.62964817 33.55471173 24.27734375 25.00390625 C23.5234375 23.06640625 23.5234375 23.06640625 23.11328125 20.87890625 C22.82130859 19.98171875 22.82130859 19.98171875 22.5234375 19.06640625 C21.5334375 18.73640625 20.5434375 18.40640625 19.5234375 18.06640625 C19.5234375 17.40640625 19.5234375 16.74640625 19.5234375 16.06640625 C18.9871875 15.79828125 18.4509375 15.53015625 17.8984375 15.25390625 C16.09836034 14.35386767 14.30839417 13.43357118 12.5234375 12.50390625 C4.51704248 8.66750864 -4.97073235 8.9350806 -13.3515625 11.56640625 C-20.01208377 14.35858984 -23.8853337 18.40220049 -26.75390625 25.0078125 C-28.61364648 30.29582832 -29.96904622 35.48372714 -30.4765625 41.06640625 C-30.8065625 41.06640625 -31.1365625 41.06640625 -31.4765625 41.06640625 C-31.4765625 38.42640625 -31.4765625 35.78640625 -31.4765625 33.06640625 C-32.4665625 33.06640625 -33.4565625 33.06640625 -34.4765625 33.06640625 C-34.78417738 41.25238 -34.57848115 48.82024319 -30.2890625 56.00390625 C-29.6909375 57.01453125 -29.0928125 58.02515625 -28.4765625 59.06640625 C-28.8065625 59.72640625 -29.1365625 60.38640625 -29.4765625 61.06640625 C-31.17630509 58.41937628 -32.83364172 55.74902615 -34.4765625 53.06640625 C-35.0540625 52.13828125 -35.6315625 51.21015625 -36.2265625 50.25390625 C-39.70779293 41.37676867 -38.78248522 32.76694963 -35.28515625 24.12109375 C-29.85981105 12.32429411 -22.57925401 5.79581623 -10.4765625 1.06640625 C-6.96612478 0.05072807 -3.64351597 0.0976968 0 0 Z " fill="#565656" transform="translate(131.4765625,27.93359375)"/>
<path d="M0 0 C0 0.66 0 1.32 0 2 C0.825 2.185625 1.65 2.37125 2.5 2.5625 C10.66044371 5.91411081 17.00449887 13.23374467 21 21 C21.1875 23.8046875 21.1875 23.8046875 21 26 C20.01 26 19.02 26 18 26 C18 25.34 18 24.68 18 24 C17.34 24 16.68 24 16 24 C16.16371094 24.54140625 16.32742187 25.0828125 16.49609375 25.640625 C17.08590587 28.40222593 17.09609308 30.92818139 17.0625 33.75 C17.05347656 34.73484375 17.04445313 35.7196875 17.03515625 36.734375 C17.02355469 37.48203125 17.01195312 38.2296875 17 39 C16.67 39 16.34 39 16 39 C15.88785156 37.89205078 15.88785156 37.89205078 15.7734375 36.76171875 C14.61502559 27.82377586 11.97840616 19.2729264 5.125 13 C-3.93575443 7.20111716 -13.36217758 6.4621834 -23.91015625 8.5859375 C-30.57379466 10.83118197 -35.15324985 15.17330492 -39 21 C-40.78213532 25.38865978 -41.50644533 29.69165752 -42.125 34.375 C-42.29257813 35.62023437 -42.46015625 36.86546875 -42.6328125 38.1484375 C-42.75398437 39.08945313 -42.87515625 40.03046875 -43 41 C-43.33 41 -43.66 41 -44 41 C-44.1953125 39.01432292 -44.390625 37.02864583 -44.5859375 35.04296875 C-44.92665391 32.70011858 -44.92665391 32.70011858 -47 30 C-47.30116219 37.21673849 -47.41303174 43.47152523 -44.55859375 50.1953125 C-44 52 -44 52 -45 55 C-45.65239158 53.60721983 -46.29660552 52.21060788 -46.9375 50.8125 C-47.29714844 50.03519531 -47.65679687 49.25789063 -48.02734375 48.45703125 C-52.19942923 37.91790769 -49.98434726 27.237155 -46 17 C-41.65525865 10.48288797 -37.18096848 5.31429314 -30 2 C-29.01 2 -28.02 2 -27 2 C-27 1.34 -27 0.68 -27 0 C-17.75388911 -2.79127876 -9.24611089 -2.79127876 0 0 Z " fill="#505050" transform="translate(226,58)"/>
<path d="M0 0 C8.37509599 0.20515365 14.52969508 3.80789536 21.5234375 8.06640625 C21.1934375 8.72640625 20.8634375 9.38640625 20.5234375 10.06640625 C19.85957031 9.71707031 19.19570312 9.36773437 18.51171875 9.0078125 C17.18720703 8.32525391 17.18720703 8.32525391 15.8359375 7.62890625 C14.96582031 7.17644531 14.09570312 6.72398438 13.19921875 6.2578125 C4.4150579 2.34661679 -6.45846218 3.29627229 -15.4765625 6.06640625 C-16.4665625 6.56140625 -16.4665625 6.56140625 -17.4765625 7.06640625 C-17.1465625 8.05640625 -16.8165625 9.04640625 -16.4765625 10.06640625 C-15.88230469 9.77765625 -15.28804687 9.48890625 -14.67578125 9.19140625 C-6.99380431 5.75064519 -0.30265652 4.27253437 7.78125 7.27734375 C16.54475165 11.43736742 16.54475165 11.43736742 19.5234375 16.06640625 C17.18063923 14.89500712 14.84678026 13.7139806 12.5234375 12.50390625 C4.51704248 8.66750864 -4.97073235 8.9350806 -13.3515625 11.56640625 C-20.01208377 14.35858984 -23.8853337 18.40220049 -26.75390625 25.0078125 C-28.61364648 30.29582832 -29.96904622 35.48372714 -30.4765625 41.06640625 C-30.8065625 41.06640625 -31.1365625 41.06640625 -31.4765625 41.06640625 C-31.4765625 38.42640625 -31.4765625 35.78640625 -31.4765625 33.06640625 C-32.4665625 33.06640625 -33.4565625 33.06640625 -34.4765625 33.06640625 C-34.78417738 41.25238 -34.57848115 48.82024319 -30.2890625 56.00390625 C-29.6909375 57.01453125 -29.0928125 58.02515625 -28.4765625 59.06640625 C-28.8065625 59.72640625 -29.1365625 60.38640625 -29.4765625 61.06640625 C-31.17630509 58.41937628 -32.83364172 55.74902615 -34.4765625 53.06640625 C-35.0540625 52.13828125 -35.6315625 51.21015625 -36.2265625 50.25390625 C-39.70779293 41.37676867 -38.78248522 32.76694963 -35.28515625 24.12109375 C-29.85981105 12.32429411 -22.57925401 5.79581623 -10.4765625 1.06640625 C-6.96612478 0.05072807 -3.64351597 0.0976968 0 0 Z " fill="#101110" transform="translate(131.4765625,27.93359375)"/>
<path d="M0 0 C4.10628559 2.82006213 7.23869809 5.85804713 10 10 C10.92744552 15.06465901 11.1984094 19.86365528 10.3125 24.9375 C9.62806598 28.11463324 9.62806598 28.11463324 11.9375 30.4375 C12.9584375 31.2109375 12.9584375 31.2109375 14 32 C11 32 11 32 8.75 30.25 C8.1725 29.5075 7.595 28.765 7 28 C7.3125 25.8125 7.3125 25.8125 8 24 C7.67 23.67 7.34 23.34 7 23 C6.84168746 21.25269861 6.72335745 19.50169941 6.625 17.75 C6.15028631 11.86029545 6.15028631 11.86029545 3 7 C-2.00976758 4.43402148 -7.49272911 4.43584054 -13 5 C-16.97119852 6.29966497 -18.48954263 7.26834443 -20.875 10.6875 C-22.19787443 14.58263027 -22.84864769 17.96697703 -22 22 C-19.94612577 25.95036347 -17.13442326 28.86557674 -14 32 C-19.445 30.515 -19.445 30.515 -25 29 C-29.18213296 33.18213296 -30.01674434 34.16744339 -30.5625 39.625 C-30.64628906 40.44226563 -30.73007812 41.25953125 -30.81640625 42.1015625 C-30.87699219 42.72804687 -30.93757813 43.35453125 -31 44 C-31.66 44 -32.32 44 -33 44 C-33.3359892 38.5121764 -32.57204059 34.8685054 -30 30 C-27.8125 27.5625 -27.8125 27.5625 -26 26 C-26.66 25.01 -27.32 24.02 -28 23 C-28.1953125 20.30078125 -28.1953125 20.30078125 -28.125 17.3125 C-28.10695313 16.31863281 -28.08890625 15.32476562 -28.0703125 14.30078125 C-28.04710937 13.54152344 -28.02390625 12.78226563 -28 12 C-27.34 12 -26.68 12 -26 12 C-25.9175 11.278125 -25.835 10.55625 -25.75 9.8125 C-24.7660487 6.12268262 -23.82765585 4.62568044 -21 2 C-13.98718065 -1.78506475 -7.47353927 -3.28588669 0 0 Z " fill="#616161" transform="translate(57,68)"/>
<path d="M0 0 C4.21789036 3.82552847 7.18087132 8.16791695 8.06640625 13.8828125 C8.16904075 18.02924632 7.73204277 20.78359826 5.6875 24.4375 C5.0275 24.4375 4.3675 24.4375 3.6875 24.4375 C3.6875 23.4475 3.6875 22.4575 3.6875 21.4375 C3.33558594 21.98019531 2.98367187 22.52289063 2.62109375 23.08203125 C-0.88465309 28.16216049 -3.33185209 30.72874345 -9.3125 32.4375 C-15.46367741 33.1907054 -19.27465389 31.01219927 -24.0625 27.3125 C-27.1044873 23.42551623 -27.51707693 20.28234963 -28.3125 15.4375 C-28.3125 18.4075 -28.3125 21.3775 -28.3125 24.4375 C-28.9725 24.4375 -29.6325 24.4375 -30.3125 24.4375 C-32.06495485 19.18013545 -31.7823586 14.11137128 -30.3125 8.875 C-27.03796948 3.24690067 -22.83719196 -0.39366113 -16.9375 -3.125 C-10.76713953 -3.86969868 -5.59065011 -2.63709911 0 0 Z M-23.3125 6.4375 C-26.40673711 10.97571442 -27.1019835 15.09248335 -26.3125 20.4375 C-24.74270534 24.59745584 -23.19526091 27.20197099 -19.3125 29.4375 C-14.57949971 31.23277597 -9.73042909 30.98285734 -5.0625 29.1875 C-2.35136031 27.46222929 -0.87851236 26.22152197 0.6875 23.4375 C0.6875 22.4475 0.6875 21.4575 0.6875 20.4375 C1.3475 20.4375 2.0075 20.4375 2.6875 20.4375 C3.21948586 14.4792584 2.57098247 10.99639183 -0.90625 6.0703125 C-3.52883074 3.02520486 -5.74957023 2.60008665 -9.640625 2.1953125 C-15.35880362 1.90426748 -18.94819453 2.39253395 -23.3125 6.4375 Z " fill="#727272" transform="translate(224.3125,69.5625)"/>
<path d="M0 0 C4.85679141 2.89539488 8.44495466 6.52236397 10.25 11.9375 C10.31955183 13.91555391 10.33451778 15.89584616 10.3125 17.875 C10.30347656 18.91527344 10.29445312 19.95554687 10.28515625 21.02734375 C10.27355469 21.98769531 10.26195312 22.94804688 10.25 23.9375 C9.9518576 27.7138932 9.9518576 27.7138932 11.25 29.9375 C9.93 29.6075 8.61 29.2775 7.25 28.9375 C7.58 26.6275 7.91 24.3175 8.25 21.9375 C7.59 21.9375 6.93 21.9375 6.25 21.9375 C6.064375 23.0821875 6.064375 23.0821875 5.875 24.25 C5.25 26.9375 5.25 26.9375 3.25 29.9375 C2.59 29.6075 1.93 29.2775 1.25 28.9375 C1.9925 27.761875 1.9925 27.761875 2.75 26.5625 C5.04186686 21.02382177 4.86308617 15.81900501 3.625 10 C1.57686793 6.9278019 -0.26734594 6.14059868 -3.75 4.9375 C-9.41819265 4.1972888 -13.91642074 4.63651904 -18.75 7.9375 C-20.9253136 11.23387965 -21.01947307 14.04288672 -21 17.9375 C-21.00515625 18.96875 -21.0103125 20 -21.015625 21.0625 C-20.7517587 23.91846469 -20.31143222 25.5571348 -18.75 27.9375 C-16.7164052 29.20554566 -16.7164052 29.20554566 -14.75 29.9375 C-14.75 30.5975 -14.75 31.2575 -14.75 31.9375 C-17.125 31.25 -17.125 31.25 -19.75 29.9375 C-21.0625 27.3125 -21.0625 27.3125 -21.75 24.9375 C-22.41 24.9375 -23.07 24.9375 -23.75 24.9375 C-24.08 25.9275 -24.41 26.9175 -24.75 27.9375 C-27.75558985 22.93217507 -27.22115684 17.59138205 -26.75 11.9375 C-25.03347789 6.48501802 -21.35380327 3.1496991 -16.75 -0.0625 C-11.1667827 -1.92357243 -5.62045437 -1.59246207 0 0 Z " fill="#7C7C7C" transform="translate(138.75,40.0625)"/>
<path d="M0 0 C2.1875 2.4375 2.1875 2.4375 4 5 C4.5775 5.763125 5.155 6.52625 5.75 7.3125 C6.1625 7.869375 6.575 8.42625 7 9 C6.67 9.66 6.34 10.32 6 11 C5.01 11.33 4.02 11.66 3 12 C2.505 10.515 2.505 10.515 2 9 C0.67661368 8.31379969 -0.65949948 7.65213539 -2 7 C-2.886875 6.21625 -3.77375 5.4325 -4.6875 4.625 C-10.78227111 -0.50984466 -17.17608022 -2.7238205 -25.14453125 -2.4765625 C-29.41932593 -1.76312208 -32.97645737 -0.01246375 -36.78515625 2.00390625 C-37.51605469 2.33261719 -38.24695313 2.66132812 -39 3 C-39.66 2.67 -40.32 2.34 -41 2 C-40.01 1.67 -39.02 1.34 -38 1 C-38 0.34 -38 -0.32 -38 -1 C-38.66 -1.33 -39.32 -1.66 -40 -2 C-27.63120836 -8.7733859 -11.90459574 -7.36951165 0 0 Z " fill="#101110" transform="translate(153,37)"/>
<path d="M0 0 C0.66 0.33 1.32 0.66 2 1 C-1 3 -1 3 -4 3 C-4.33 3.66 -4.66 4.32 -5 5 C-7.31 5.66 -9.62 6.32 -12 7 C-12 12.61 -12 18.22 -12 24 C-9.69 24 -7.38 24 -5 24 C1.26538426 25.23070048 6.6250866 27.61146764 12 31 C11.67 31.66 11.34 32.32 11 33 C10.44054687 32.67386719 9.88109375 32.34773438 9.3046875 32.01171875 C2.06098676 28.06378539 -4.9017505 26.50849746 -13 25 C-13 19.72 -13 14.44 -13 9 C-15.97 9 -18.94 9 -22 9 C-22 14.28 -22 19.56 -22 25 C-24.97 25.33 -27.94 25.66 -31 26 C-31.33 26.99 -31.66 27.98 -32 29 C-37.75 30 -37.75 30 -40 30 C-42.34570085 30.97063483 -44.68020619 31.96898053 -47 33 C-47 32.34 -47 31.68 -47 31 C-45.02 30.34 -43.04 29.68 -41 29 C-41 28.34 -41 27.68 -41 27 C-39.31598074 26.48839921 -37.62754778 25.99131941 -35.9375 25.5 C-34.99777344 25.2215625 -34.05804688 24.943125 -33.08984375 24.65625 C-30 24 -30 24 -23 24 C-23 18.06 -23 12.12 -23 6 C-23.66 5.67 -24.32 5.34 -25 5 C-23.62328125 4.94392578 -23.62328125 4.94392578 -22.21875 4.88671875 C-15.18501055 4.50991128 -9.42384172 3.90890946 -3 1 C-2.01 0.67 -1.02 0.34 0 0 Z " fill="#909090" transform="translate(148,96)"/>
<path d="M0 0 C-0.33 0.99 -0.66 1.98 -1 3 C-5.29 3 -9.58 3 -14 3 C-11.03 3.33 -8.06 3.66 -5 4 C-5 4.33 -5 4.66 -5 5 C-6.05058594 4.94199219 -7.10117187 4.88398437 -8.18359375 4.82421875 C-18.81664075 4.41080469 -18.81664075 4.41080469 -28.30078125 8.90625 C-30 10 -30 10 -33 10 C-33.33 11.32 -33.66 12.64 -34 14 C-35.66666667 14 -37.33333333 14 -39 14 C-35.94748465 7.09406181 -29.94189207 3.15376773 -23.25 0.0625 C-15.43552822 -2.94839914 -7.71441671 -3.48618831 0 0 Z " fill="#0F100F" transform="translate(59,60)"/>
<path d="M0 0 C8.90963855 1.04819277 8.90963855 1.04819277 12 3 C15.90810925 8.00625565 17.56695634 12.6318216 17.37109375 18.95703125 C16.95446102 21.25070409 16.13378776 22.9737528 15 25 C14.34 25 13.68 25 13 25 C13 24.01 13 23.02 13 22 C12.64808594 22.54269531 12.29617187 23.08539063 11.93359375 23.64453125 C8.42784691 28.72466049 5.98064791 31.29124345 0 33 C-4.85178622 33.59409627 -7.85224677 32.54521221 -12 30 C-12.66 29.01 -13.32 28.02 -14 27 C-13.4225 27.309375 -12.845 27.61875 -12.25 27.9375 C-6.80259834 30.50988412 -1.5003044 30.86548999 4.25 28.875 C7.52222186 26.64393964 8.5461127 24.63471826 10 21 C10.66 21 11.32 21 12 21 C11.57136605 14.89196621 10.60582493 11.00809018 7 6 C4.4091705 4.50886646 4.4091705 4.50886646 2 4 C2 3.34 2 2.68 2 2 C1.34 1.34 0.68 0.68 0 0 Z " fill="#797979" transform="translate(215,69)"/>
<path d="M0 0 C0 0.66 0 1.32 0 2 C0.86625 2.2475 1.7325 2.495 2.625 2.75 C9.08002994 5.14075183 12.57984308 8.21204214 16 14 C12.23076923 12.49230769 12.23076923 12.49230769 11.0625 10 C9.57479203 7.19960853 7.96182987 6.9643167 5 6 C3.33333333 5.33333333 1.66666667 4.66666667 0 4 C-0.66 4.66 -1.32 5.32 -2 6 C-1.01 6.66 -0.02 7.32 1 8 C0.67 8.66 0.34 9.32 0 10 C-1.093125 9.525625 -2.18625 9.05125 -3.3125 8.5625 C-8.43476513 6.61291255 -13.56561888 6.28970046 -19 6 C-17 4 -17 4 -14.6875 3.875 C-12.89583333 3.95833333 -11.10416667 4.04166667 -9.3125 4.125 C-6.80221125 4.24748441 -6.80221125 4.24748441 -5 2 C-14.1318595 -1.04395317 -22.39059028 1.25908971 -30.8515625 5.21875 C-36.81844585 8.59455497 -40.85603192 12.89700315 -44 19 C-44.66 18.67 -45.32 18.34 -46 18 C-40.95075021 10.71280434 -35.96706867 4.18708992 -27 2 C-27 1.34 -27 0.68 -27 0 C-17.75388911 -2.79127876 -9.24611089 -2.79127876 0 0 Z " fill="#676767" transform="translate(62,58)"/>
<path d="M0 0 C1.99188613 8.6904064 2.58178299 19.99897596 -2 28 C-4.109375 28.765625 -4.109375 28.765625 -6 29 C-6.66182665 25.39672155 -7.0565948 22.39239059 -6.53125 18.75 C-5.9716129 14.79962049 -5.90221504 11.04970032 -5.9375 7.0625 C-5.94426758 6.03672852 -5.94426758 6.03672852 -5.95117188 4.99023438 C-5.9628044 3.32678396 -5.98073306 1.6633795 -6 0 C-3 -1 -3 -1 0 0 Z " fill="#0F100F" transform="translate(248,82)"/>
<path d="M0 0 C0.99 0.33 1.98 0.66 3 1 C2.39671875 1.4846875 1.7934375 1.969375 1.171875 2.46875 C-4.1100962 6.89879036 -7.60982556 10.48134244 -10 17 C-9.64873187 19.17977678 -9.64873187 19.17977678 -9 21 C-8.34 21 -7.68 21 -7 21 C-6.566875 19.2984375 -6.566875 19.2984375 -6.125 17.5625 C-5.75375 16.386875 -5.3825 15.21125 -5 14 C-4.34 13.67 -3.68 13.34 -3 13 C-3.19335938 13.67804687 -3.38671875 14.35609375 -3.5859375 15.0546875 C-5.34142258 21.32924309 -6.81862292 27.59276664 -8 34 C-8.33 34 -8.66 34 -9 34 C-9 31.36 -9 28.72 -9 26 C-9.99 26 -10.98 26 -12 26 C-12.30761488 34.18597375 -12.10191865 41.75383694 -7.8125 48.9375 C-7.214375 49.948125 -6.61625 50.95875 -6 52 C-6.33 52.66 -6.66 53.32 -7 54 C-8.69974259 51.35297003 -10.35707922 48.6826199 -12 46 C-12.5775 45.071875 -13.155 44.14375 -13.75 43.1875 C-17.23123043 34.31036242 -16.30592272 25.70054338 -12.80859375 17.0546875 C-9.602534 10.08347311 -5.802781 5.00747599 0 0 Z " fill="#757575" transform="translate(109,35)"/>
<path d="M0 0 C10.34271462 -0.47981666 19.71667908 0.18926946 28 7 C31.32044948 10.46786901 34.33568908 14.00353362 37 18 C36.625 20.1875 36.625 20.1875 36 22 C36 21.34 36 20.68 36 20 C35.34 20 34.68 20 34 20 C34 19.34 34 18.68 34 18 C33.39671875 17.90332031 32.7934375 17.80664062 32.171875 17.70703125 C29.53358295 16.84816279 28.86369728 15.90396067 27.25 13.6875 C24.04869778 9.73247346 20.65569293 7.89277689 16 6 C15.21367187 5.64808594 14.42734375 5.29617187 13.6171875 4.93359375 C10.74343027 3.90847736 8.22538966 3.59460648 5.1875 3.375 C4.21167969 3.30023438 3.23585937 3.22546875 2.23046875 3.1484375 C1.49441406 3.09945312 0.75835937 3.05046875 0 3 C0 2.01 0 1.02 0 0 Z " fill="#101111" transform="translate(207,59)"/>
<path d="M0 0 C12.22759235 -0.51066511 21.76352555 -0.63857176 31.5625 7.625 C33.49307421 9.40408045 34.82652497 10.65304994 36 13 C36.99 13.33 37.98 13.66 39 14 C39 14.66 39 15.32 39 16 C39.66 16 40.32 16 41 16 C41.66 15.34 42.32 14.68 43 14 C45 16 45 16 45.125 18.625 C45.08375 19.40875 45.0425 20.1925 45 21 C44.01 21 43.02 21 42 21 C42 20.34 42 19.68 42 19 C41.34 19 40.68 19 40 19 C40.16371094 19.54140625 40.32742187 20.0828125 40.49609375 20.640625 C41.08590587 23.40222593 41.09609308 25.92818139 41.0625 28.75 C41.05347656 29.73484375 41.04445312 30.7196875 41.03515625 31.734375 C41.02355469 32.48203125 41.01195312 33.2296875 41 34 C40.67 34 40.34 34 40 34 C39.92523438 33.26136719 39.85046875 32.52273437 39.7734375 31.76171875 C38.61502559 22.82377586 35.97840616 14.2729264 29.125 8 C20.63360425 2.56550672 12.96867901 2.18601455 3 3 C0.61028111 3.55200603 -1.66227904 4.24482888 -4 5 C-4 4.34 -4 3.68 -4 3 C-2.68 2.67 -1.36 2.34 0 2 C0 1.34 0 0.68 0 0 Z " fill="#656565" transform="translate(202,63)"/>
<path d="M0 0 C0.33 0.66 0.66 1.32 1 2 C0.45730469 2.44730469 -0.08539063 2.89460938 -0.64453125 3.35546875 C-1.35996094 3.96003906 -2.07539063 4.56460938 -2.8125 5.1875 C-3.87404297 6.07501953 -3.87404297 6.07501953 -4.95703125 6.98046875 C-9.86853663 11.83562799 -10.73539973 16.72063638 -11.6875 23.3125 C-11.81705078 24.14845703 -11.94660156 24.98441406 -12.08007812 25.84570312 C-12.39635892 27.89567127 -12.69950147 29.94765901 -13 32 C-13.33 32 -13.66 32 -14 32 C-14.1953125 30.01432292 -14.390625 28.02864583 -14.5859375 26.04296875 C-14.92665391 23.70011858 -14.92665391 23.70011858 -17 21 C-17.30116219 28.21673849 -17.41303174 34.47152523 -14.55859375 41.1953125 C-14 43 -14 43 -15 46 C-15.65239158 44.60721983 -16.29660552 43.21060788 -16.9375 41.8125 C-17.29714844 41.03519531 -17.65679687 40.25789063 -18.02734375 39.45703125 C-21.89648279 29.68318202 -20.15131615 19.69780031 -17 10 C-16.34 10 -15.68 10 -15 10 C-15.33 11.65 -15.66 13.3 -16 15 C-14.68 15.33 -13.36 15.66 -12 16 C-11.91363281 15.38511719 -11.82726562 14.77023438 -11.73828125 14.13671875 C-10.5761054 7.45154207 -10.5761054 7.45154207 -7.6875 5.1875 C-6.800625 4.795625 -5.91375 4.40375 -5 4 C-3.31522656 2.68962066 -1.64351457 1.36176922 0 0 Z " fill="#676767" transform="translate(196,67)"/>
<path d="M0 0 C0.33 0 0.66 0 1 0 C1 1.65 1 3.3 1 5 C2.32 5.33 3.64 5.66 5 6 C4.96519531 6.85722656 4.93039063 7.71445312 4.89453125 8.59765625 C4.73415323 15.37171819 5.03960009 19.95048714 8 26 C7.6875 28.4375 7.6875 28.4375 7 30 C6.01 30 5.02 30 4 30 C-0.59807423 20.3761237 -2.82574994 10.59656229 0 0 Z " fill="#101111" transform="translate(97,56)"/>
<path d="M0 0 C0.33 0 0.66 0 1 0 C1.18175781 1.21816406 1.36351563 2.43632812 1.55078125 3.69140625 C1.80420257 5.31517992 2.0581361 6.93887371 2.3125 8.5625 C2.43044922 9.36236328 2.54839844 10.16222656 2.66992188 10.98632812 C3.4854525 16.10953331 4.75275523 20.32159273 7 25 C7.35320312 25.75925781 7.70640625 26.51851562 8.0703125 27.30078125 C14.32325034 39.2276812 23.41998408 48.05993522 36.28686523 52.09057617 C37.74702649 52.52564463 39.21143893 52.94672334 40.67993164 53.3527832 C42.46799549 53.85188233 44.23634793 54.42051432 46 55 C46.33 55.66 46.66 56.32 47 57 C32.0167625 55.66815667 19.57091476 47.35373221 10 36 C7 30.9375 7 30.9375 7 28 C6.34 28 5.68 28 5 28 C4.35035977 26.10546779 3.70544885 24.20931351 3.0625 22.3125 C2.70285156 21.25675781 2.34320313 20.20101562 1.97265625 19.11328125 C0.48146829 14.34028204 -0.12276343 10.18936477 -0.0625 5.1875 C-0.05347656 4.21167969 -0.04445313 3.23585937 -0.03515625 2.23046875 C-0.02355469 1.49441406 -0.01195313 0.75835937 0 0 Z " fill="#8A8A8A" transform="translate(75,174)"/>
<path d="M0 0 C0.125 6.75 0.125 6.75 -1 9 C-1.08340844 10.41327972 -1.10732942 11.83038793 -1.09765625 13.24609375 C-1.09443359 14.08333984 -1.09121094 14.92058594 -1.08789062 15.78320312 C-1.07951172 16.65912109 -1.07113281 17.53503906 -1.0625 18.4375 C-1.05798828 19.30955078 -1.05347656 20.18160156 -1.04882812 21.08007812 C-1.04009923 22.70240629 -1.02932158 24.32472561 -1.01586914 25.94702148 C-1.00284994 27.63130565 -1 29.31566552 -1 31 C-1.66 31.33 -2.32 31.66 -3 32 C-5.70172645 26.60363825 -6.40128581 22.55398437 -6.1875 16.5625 C-6.17396484 15.83095703 -6.16042969 15.09941406 -6.14648438 14.34570312 C-6.11153874 12.56347578 -6.05774805 10.78163427 -6 9 C-5.01 8.67 -4.02 8.34 -3 8 C-3.226875 7.236875 -3.45375 6.47375 -3.6875 5.6875 C-4 3 -4 3 -2.625 1.1875 C-1 0 -1 0 0 0 Z " fill="#0B0C0C" transform="translate(20,77)"/>
<path d="M0 0 C3.7779324 1.96850162 6.18386154 3.65059564 8.5 7.25 C6.15720173 6.07860087 3.82334276 4.89757435 1.5 3.6875 C-6.52894399 -0.15970233 -16.01298216 0.08766072 -24.375 2.875 C-29.30008118 4.87964505 -32.71389776 7.54803337 -36.5 11.25 C-36.17 8.94 -35.84 6.63 -35.5 4.25 C-34.68208984 3.99476562 -34.68208984 3.99476562 -33.84765625 3.734375 C-29.76235962 2.42149335 -25.95295822 1.00762886 -22.125 -0.9375 C-14.28997584 -4.42727679 -7.6444031 -3.63316625 0 0 Z " fill="#5C5C5C" transform="translate(142.5,36.75)"/>
<path d="M0 0 C6.17256141 -0.44089724 11.02966105 0.0215247 16 4 C18.39027727 7.42353834 19.68772589 11.06317768 21 15 C20.67 12.36 20.34 9.72 20 7 C20.66 7 21.32 7 22 7 C23.07427655 10.22282964 23.10013254 12.55475264 23.0625 15.9375 C23.05347656 16.97777344 23.04445312 18.01804687 23.03515625 19.08984375 C23.02355469 20.05019531 23.01195312 21.01054688 23 22 C22.7018576 25.7763932 22.7018576 25.7763932 24 28 C22.68 27.67 21.36 27.34 20 27 C20.33 24.69 20.66 22.38 21 20 C20.34 20 19.68 20 19 20 C18.87625 20.763125 18.7525 21.52625 18.625 22.3125 C18 25 18 25 16 28 C15.34 27.67 14.68 27.34 14 27 C14.495 26.21625 14.99 25.4325 15.5 24.625 C17.79186686 19.08632177 17.61308617 13.88150501 16.375 8.0625 C14.32471833 4.98707749 12.4816834 4.24345836 9 3 C5.67318807 2.48856473 2.35938276 2.19253379 -1 2 C-0.67 1.34 -0.34 0.68 0 0 Z " fill="#707170" transform="translate(126,42)"/>
<path d="M0 0 C-1.36253583 3.11824121 -2.85108253 5.04737351 -5.4375 7.25 C-6.03433594 7.77078125 -6.63117188 8.2915625 -7.24609375 8.828125 C-9 10 -9 10 -12 10 C-12.144375 10.928125 -12.28875 11.85625 -12.4375 12.8125 C-13 16 -13 16 -14 19 C-15.65 18.67 -17.3 18.34 -19 18 C-18.67 15.69 -18.34 13.38 -18 11 C-17.01 10.67 -16.02 10.34 -15 10 C-13.50863006 8.23682177 -13.50863006 8.23682177 -12.125 6.125 C-8.92499256 1.71310856 -5.81034176 -2.36717627 0 0 Z " fill="#111212" transform="translate(198,64)"/>
<path d="M0 0 C0.08160748 1.89510699 0.13946459 3.79124504 0.1875 5.6875 C0.23970703 7.27111328 0.23970703 7.27111328 0.29296875 8.88671875 C-0.03333385 12.35422768 -1.00969875 14.18432448 -3 17 C-3.99 16.67 -4.98 16.34 -6 16 C-6 15.34 -6 14.68 -6 14 C-6.66 14 -7.32 14 -8 14 C-8.433125 15.3921875 -8.433125 15.3921875 -8.875 16.8125 C-10 20 -10 20 -12 23 C-12.66 23 -13.32 23 -14 23 C-14.13277344 22.08476563 -14.26554688 21.16953125 -14.40234375 20.2265625 C-14.57894531 19.03804687 -14.75554687 17.84953125 -14.9375 16.625 C-15.11152344 15.44164063 -15.28554687 14.25828125 -15.46484375 13.0390625 C-15.83462786 10.09297619 -15.83462786 10.09297619 -17 8 C-14 9 -14 9 -13.05078125 10.84765625 C-12.80714844 11.57855469 -12.56351563 12.30945313 -12.3125 13.0625 C-12.06113281 13.79597656 -11.80976563 14.52945313 -11.55078125 15.28515625 C-11.36902344 15.85105469 -11.18726563 16.41695312 -11 17 C-10.34 14.69 -9.68 12.38 -9 10 C-7.35 9.67 -5.7 9.34 -4 9 C-4.061875 7.88625 -4.12375 6.7725 -4.1875 5.625 C-4.125625 4.42875 -4.06375 3.2325 -4 2 C-1 0 -1 0 0 0 Z " fill="#4E4F4E" transform="translate(167,62)"/>
<path d="M0 0 C0.66 0.33 1.32 0.66 2 1 C1.401875 2.175625 0.80375 3.35125 0.1875 4.5625 C-6.40971441 17.82711195 -7.90496623 28.69926166 -3.15625 42.89453125 C-1.61989217 47.02089773 0.07615835 51.03975149 2 55 C-1 54 -1 54 -2.6875 51.0625 C-4 48 -4 48 -4 46 C-4.66 46 -5.32 46 -6 46 C-9.97299339 30.53083198 -9.51048939 16.13034485 -1.33203125 2.1484375 C-0.89246094 1.43945312 -0.45289062 0.73046875 0 0 Z " fill="#848484" transform="translate(91,148)"/>
<path d="M0 0 C-0.969375 0.70125 -1.93875 1.4025 -2.9375 2.125 C-5.27793215 4.09096301 -5.93701141 4.79753667 -6.875 7.8125 C-6.91625 8.864375 -6.9575 9.91625 -7 11 C-7.03738281 11.64324219 -7.07476562 12.28648438 -7.11328125 12.94921875 C-7.27338216 17.37305964 -6.66542837 20.83642908 -5 25 C-8 23 -8 23 -8.73046875 20.8359375 C-9.36523438 17.41796875 -9.36523438 17.41796875 -10 14 C-10 16.97 -10 19.94 -10 23 C-10.66 23 -11.32 23 -12 23 C-13.74741514 17.75775457 -13.75103525 12.28691696 -11.6875 7.1875 C-9.10428283 2.30808979 -5.87767138 -1.95922379 0 0 Z " fill="#727272" transform="translate(206,71)"/>
<path d="M0 0 C1.13199353 0.9080162 2.25532363 1.82683826 3.375 2.75 C4.00148437 3.26046875 4.62796875 3.7709375 5.2734375 4.296875 C7.08312318 6.08199481 8.00117455 7.67949644 9 10 C8.236875 10.5775 7.47375 11.155 6.6875 11.75 C4.33799083 13.71703093 2.70676495 15.48476744 1 18 C0.34 17.67 -0.32 17.34 -1 17 C-0.34 16.34 0.32 15.68 1 15 C1.70710678 13.35008418 2.37943989 11.68437744 3 10 C4.32 10 5.64 10 7 10 C6.175 9.21625 5.35 8.4325 4.5 7.625 C2 5 2 5 2 3 C1.27683594 3.6496875 1.27683594 3.6496875 0.5390625 4.3125 C-0.09257812 4.869375 -0.72421875 5.42625 -1.375 6 C-2.31472656 6.8353125 -2.31472656 6.8353125 -3.2734375 7.6875 C-5 9 -5 9 -7 9 C-7.226875 9.556875 -7.45375 10.11375 -7.6875 10.6875 C-9.40622159 13.71572375 -11.32788397 15.77323664 -14 18 C-16.1875 18 -16.1875 18 -18 17 C-18.66 16.01 -19.32 15.02 -20 14 C-18.02 14.99 -18.02 14.99 -16 16 C-10.12580856 11.07380487 -4.70244434 6.09576118 0 0 Z " fill="#747474" transform="translate(181,115)"/>
<path d="M0 0 C2.55762679 0.74597448 4.70073775 1.54850255 7 2.875 C6.01 3.205 5.02 3.535 4 3.875 C3.34 3.545 2.68 3.215 2 2.875 C0.00039988 2.835008 -2.00047242 2.83153201 -4 2.875 C-5.01303762 4.59656096 -6.00994848 6.32761806 -7 8.0625 C-7.556875 9.02542969 -8.11375 9.98835937 -8.6875 10.98046875 C-10.02901231 13.93898251 -10.49821501 15.67623315 -10 18.875 C-9.175 19.24625 -8.35 19.6175 -7.5 20 C-6.675 20.61875 -5.85 21.2375 -5 21.875 C-4.53322527 25.5707576 -4.71678182 29.1679887 -5 32.875 C-6.98 33.37 -6.98 33.37 -9 33.875 C-8.67 33.215 -8.34 32.555 -8 31.875 C-7.77377919 30.17136178 -7.59111527 28.46171299 -7.4375 26.75 C-7.35371094 25.83992188 -7.26992187 24.92984375 -7.18359375 23.9921875 C-7.09271484 22.94417969 -7.09271484 22.94417969 -7 21.875 C-7.804375 21.565625 -8.60875 21.25625 -9.4375 20.9375 C-12 19.875 -12 19.875 -13 18.875 C-12.70249959 11.58623986 -9.3581359 6.9938249 -5.0625 1.3125 C-3 -0.125 -3 -0.125 0 0 Z " fill="#707070" transform="translate(106,148.125)"/>
<path d="M0 0 C1.33333333 0 2.66666667 0 4 0 C4.33 2.64 4.66 5.28 5 8 C5.33 8 5.66 8 6 8 C6 11.96 6 15.92 6 20 C4.68 20.33 3.36 20.66 2 21 C-0.62096065 14.11997829 -0.18170362 7.27823961 0 0 Z " fill="#0E0F0E" transform="translate(178,87)"/>
<path d="M0 0 C0.886875 0.680625 1.77375 1.36125 2.6875 2.0625 C3.38746094 2.28808594 4.08742187 2.51367188 4.80859375 2.74609375 C6.6875 4.0625 6.6875 4.0625 7.296875 7.3203125 C7.34328125 8.59648438 7.3896875 9.87265625 7.4375 11.1875 C7.49421875 12.46882813 7.5509375 13.75015625 7.609375 15.0703125 C7.63515625 16.05773437 7.6609375 17.04515625 7.6875 18.0625 C6.55715561 15.93941836 5.64060149 13.91762539 4.8984375 11.625 C3.41797863 7.08677095 2.26315296 3.79540495 -2.0625 1.4375 C-6.22827543 -0.23820666 -9.87080903 -0.25476364 -14.3125 0.0625 C-14.3125 0.7225 -14.3125 1.3825 -14.3125 2.0625 C-16.9525 2.3925 -19.5925 2.7225 -22.3125 3.0625 C-16.21562286 -3.97235823 -7.8237057 -4.57612975 0 0 Z " fill="#101010" transform="translate(140.3125,42.9375)"/>
<path d="M0 0 C8.36930565 0.23045914 14.51528318 3.81644653 21.5078125 8.07421875 C21.1778125 8.73421875 20.8478125 9.39421875 20.5078125 10.07421875 C19.84394531 9.72488281 19.18007812 9.37554687 18.49609375 9.015625 C17.17158203 8.33306641 17.17158203 8.33306641 15.8203125 7.63671875 C14.95019531 7.18425781 14.08007812 6.73179688 13.18359375 6.265625 C3.23889227 1.83769223 -8.49386027 3.74144301 -18.4921875 7.07421875 C-18.4921875 6.41421875 -18.4921875 5.75421875 -18.4921875 5.07421875 C-12.32837079 1.5496959 -7.06327532 0.21034832 0 0 Z " fill="#787978" transform="translate(131.4921875,27.92578125)"/>
<path d="M0 0 C5.90409657 0.71564807 10.4122403 3.33081672 14.4375 7.5625 C16 10 16 10 16 13 C11.45908019 11.73276657 8.60116237 10.00096864 5 7 C4.34 7 3.68 7 3 7 C3 6.34 3 5.68 3 5 C1.68 4.34 0.36 3.68 -1 3 C-0.67 2.01 -0.34 1.02 0 0 Z " fill="#131414" transform="translate(60,61)"/>
<path d="M0 0 C2.38005939 3.72120397 2.26733337 7.0329918 2.25 11.375 C2.25773437 13.30472656 2.25773437 13.30472656 2.265625 15.2734375 C2.00947024 18.86713815 1.30334733 21.65887947 0 25 C-0.33 24.34 -0.66 23.68 -1 23 C-1.99 23.33 -2.98 23.66 -4 24 C-3.52255098 20.93722967 -3.04273483 17.87483466 -2.5625 14.8125 C-2.42779297 13.94818359 -2.29308594 13.08386719 -2.15429688 12.19335938 C-1.51295695 8.11068325 -0.86223779 4.04330923 0 0 Z " fill="#0B0C0B" transform="translate(81,82)"/>
<path d="M0 0 C0.54785156 0.144375 1.09570312 0.28875 1.66015625 0.4375 C12.39923137 2.95201515 23.37114458 2.98353836 34 0 C32.6875 1.5 32.6875 1.5 31 3 C30.01 3 29.02 3 28 3 C28 3.66 28 4.32 28 5 C21.21283273 6.80991127 13.82147102 6.43609916 7 5 C7 4.34 7 3.68 7 3 C5.824375 2.814375 5.824375 2.814375 4.625 2.625 C2 2 2 2 0 0 Z " fill="#6B6B6B" transform="translate(31,125)"/>
<path d="M0 0 C-0.73605469 0.30292969 -1.47210938 0.60585937 -2.23046875 0.91796875 C-9.13472879 3.88214909 -14.14034242 6.28068485 -17.625 13.25 C-18.07875 14.1575 -18.5325 15.065 -19 16 C-19.99 16.33 -20.98 16.66 -22 17 C-22.33 15.68 -22.66 14.36 -23 13 C-23.66 13 -24.32 13 -25 13 C-25.33 13.66 -25.66 14.32 -26 15 C-26.33 14.01 -26.66 13.02 -27 12 C-26.01 12 -25.02 12 -24 12 C-23.67 11.01 -23.34 10.02 -23 9 C-20.4375 7.8125 -20.4375 7.8125 -18 7 C-17.67 7.33 -17.34 7.66 -17 8 C-16.67 7.01 -16.34 6.02 -16 5 C-13.41796875 3.359375 -13.41796875 3.359375 -10.1875 1.75 C-8.60001953 0.93789062 -8.60001953 0.93789062 -6.98046875 0.109375 C-3.97572265 -1.00903639 -2.89774959 -1.20681097 0 0 Z " fill="#2F302F" transform="translate(42,65)"/>
<path d="M0 0 C2.5 2.3125 2.5 2.3125 5 5 C5 5.99 5 6.98 5 8 C6.32 7.67 7.64 7.34 9 7 C8.4622554 12.28782189 7.81670026 17.55091395 7.0625 22.8125 C6.90910156 23.89144531 6.75570312 24.97039062 6.59765625 26.08203125 C6.05365985 28.73801367 5.34875442 30.66930721 4 33 C3.34 32.67 2.68 32.34 2 32 C2.32226562 31.34644531 2.64453125 30.69289063 2.9765625 30.01953125 C4.2633618 26.22298216 4.38193679 22.65230726 4.375 18.6875 C4.37628906 17.93073975 4.37757812 17.17397949 4.37890625 16.39428711 C4.26939948 10.63087089 3.18741786 6.88073359 0 2 C0 1.34 0 0.68 0 0 Z " fill="#626363" transform="translate(72,75)"/>
<path d="M0 0 C0 0.66 0 1.32 0 2 C-1.05574219 2.00386719 -1.05574219 2.00386719 -2.1328125 2.0078125 C-12.37523448 2.40895174 -22.639681 5.28538337 -30.1875 12.5625 C-32.48628607 15.1747569 -34.40166202 17.89734391 -36 21 C-36.66 20.67 -37.32 20.34 -38 20 C-32.95075021 12.71280434 -27.96706867 6.18708992 -19 4 C-19 3.34 -19 2.68 -19 2 C-12.53991163 0.04978464 -6.7281627 -0.22262303 0 0 Z " fill="#818181" transform="translate(54,56)"/>
<path d="M0 0 C0.763125 0.0825 1.52625 0.165 2.3125 0.25 C1.02284824 1.62562854 -0.31439293 2.95766393 -1.6875 4.25 C-2.3475 4.25 -3.0075 4.25 -3.6875 4.25 C-3.64625 5.178125 -3.605 6.10625 -3.5625 7.0625 C-3.6875 10.25 -3.6875 10.25 -5.6875 13.25 C-7.62695312 13.63818359 -7.62695312 13.63818359 -9.96875 13.6484375 C-11.23138672 13.65423828 -11.23138672 13.65423828 -12.51953125 13.66015625 C-13.39996094 13.64855469 -14.28039062 13.63695312 -15.1875 13.625 C-16.06792969 13.63660156 -16.94835937 13.64820313 -17.85546875 13.66015625 C-18.69722656 13.65628906 -19.53898437 13.65242187 -20.40625 13.6484375 C-21.56543945 13.64336182 -21.56543945 13.64336182 -22.74804688 13.63818359 C-24.6875 13.25 -24.6875 13.25 -26.6875 10.25 C-26.8125 7.0625 -26.8125 7.0625 -26.6875 4.25 C-27.6775 3.92 -28.6675 3.59 -29.6875 3.25 C-29.0275 2.92 -28.3675 2.59 -27.6875 2.25 C-26.6975 2.91 -25.7075 3.57 -24.6875 4.25 C-24.6875 6.56 -24.6875 8.87 -24.6875 11.25 C-18.4175 11.25 -12.1475 11.25 -5.6875 11.25 C-5.6875 8.94 -5.6875 6.63 -5.6875 4.25 C-4.13636581 1.06609298 -3.56596263 0.33171745 0 0 Z " fill="#868786" transform="translate(145.6875,200.75)"/>
<path d="M0 0 C0.66 0 1.32 0 2 0 C2.33 1.32 2.66 2.64 3 4 C4.32 4 5.64 4 7 4 C9.46828196 6.18127243 11.51873144 8.03746288 13 11 C9.37 10.01 5.74 9.02 2 8 C-2.18213296 12.18213296 -3.01674434 13.16744339 -3.5625 18.625 C-3.64628906 19.44226563 -3.73007812 20.25953125 -3.81640625 21.1015625 C-3.87699219 21.72804688 -3.93757813 22.35453125 -4 23 C-4.66 23 -5.32 23 -6 23 C-6.3359892 17.5121764 -5.57204059 13.8685054 -3 9 C-1.88625 7.948125 -1.88625 7.948125 -0.75 6.875 C-0.1725 6.25625 0.405 5.6375 1 5 C0.85974801 2.29294488 0.85974801 2.29294488 0 0 Z " fill="#7F7F7F" transform="translate(30,89)"/>
<path d="M0 0 C0.33 0 0.66 0 1 0 C1 5.28 1 10.56 1 16 C-1.97 16.33 -4.94 16.66 -8 17 C-8.33 17.99 -8.66 18.98 -9 20 C-14.75 21 -14.75 21 -17 21 C-19.34570085 21.97063483 -21.68020619 22.96898053 -24 24 C-24 23.34 -24 22.68 -24 22 C-22.02 21.34 -20.04 20.68 -18 20 C-18 19.34 -18 18.68 -18 18 C-16.31598074 17.48839921 -14.62754778 16.99131941 -12.9375 16.5 C-11.99777344 16.2215625 -11.05804688 15.943125 -10.08984375 15.65625 C-7 15 -7 15 0 15 C0 10.05 0 5.1 0 0 Z " fill="#6B6B6B" transform="translate(125,105)"/>
<path d="M0 0 C0 0.33 0 0.66 0 1 C-8.91 0.67 -17.82 0.34 -27 0 C-27 -0.66 -27 -1.32 -27 -2 C-18.43225109 -4.68283047 -7.97994422 -3.90854411 0 0 Z " fill="#585858" transform="translate(146,130)"/>
<path d="M0 0 C0.66 0.99 1.32 1.98 2 3 C2.66 3.66 3.32 4.32 4 5 C4.33 5 4.66 5 5 5 C5.26263513 9.3334797 4.343675 12.88993528 3 17 C2.67 17.33 2.34 17.66 2 18 C1.95936168 19.66617115 1.957279 21.33388095 2 23 C1.01 23 0.02 23 -1 23 C-1.02683987 20.02077407 -1.04676037 17.04178705 -1.0625 14.0625 C-1.07087891 13.21236328 -1.07925781 12.36222656 -1.08789062 11.48632812 C-1.09111328 10.67744141 -1.09433594 9.86855469 -1.09765625 9.03515625 C-1.10289307 8.2862915 -1.10812988 7.53742676 -1.11352539 6.76586914 C-1 5 -1 5 0 4 C0 2.68 0 1.36 0 0 Z " fill="#131313" transform="translate(162,52)"/>
<path d="M0 0 C0.66 0.33 1.32 0.66 2 1 C1.01 1.33 0.02 1.66 -1 2 C-0.93999894 3.6260287 -0.8512115 5.25101549 -0.75 6.875 C-0.70359375 7.77992188 -0.6571875 8.68484375 -0.609375 9.6171875 C-0.30773437 10.79667969 -0.30773437 10.79667969 0 12 C1.96982481 13.12295743 1.96982481 13.12295743 4 14 C5.42682927 20.14634146 5.42682927 20.14634146 4 23 C3.34 23 2.68 23 2 23 C1.34 24.98 0.68 26.96 0 29 C-0.66 28.67 -1.32 28.34 -2 28 C-1.505 27.13375 -1.01 26.2675 -0.5 25.375 C1.07804502 21.82439871 1.5948906 19.82429669 1 16 C0.34 15.56171875 -0.32 15.1234375 -1 14.671875 C-3 13 -3 13 -3.49609375 10.37109375 C-3.47675781 9.40300781 -3.45742187 8.43492187 -3.4375 7.4375 C-3.43621094 6.46683594 -3.43492187 5.49617187 -3.43359375 4.49609375 C-3.29050781 3.67238281 -3.14742187 2.84867188 -3 2 C-2.01 1.34 -1.02 0.68 0 0 Z " fill="#666666" transform="translate(163,168)"/>
<path d="M0 0 C0.33 0 0.66 0 1 0 C1.33 2.31 1.66 4.62 2 7 C1.01 7.495 1.01 7.495 0 8 C-0.05447822 10.52113092 -0.09389852 13.0410585 -0.125 15.5625 C-0.14175781 16.26697266 -0.15851562 16.97144531 -0.17578125 17.69726562 C-0.22022044 22.51891822 0.47231996 26.42297438 2 31 C1.01 30.67 0.02 30.34 -1 30 C-4.09738937 21.78518472 -4.62674479 11.36096959 -1.5 3.0625 C-1.005 2.051875 -0.51 1.04125 0 0 Z " fill="#7B7B7B" transform="translate(15,78)"/>
<path d="M0 0 C0.33 0 0.66 0 1 0 C1.2475 1.175625 1.495 2.35125 1.75 3.5625 C2.81582753 7.91076739 4.70640315 11.17733859 7 15 C7 15.66 7 16.32 7 17 C10.06339462 17.07124174 12.70713241 17.07491962 15.6875 16.3125 C16.450625 16.209375 17.21375 16.10625 18 16 C19.8125 17.4375 19.8125 17.4375 21 19 C18 19 18 19 15 18 C15 18.66 15 19.32 15 20 C12.8125 20.8125 12.8125 20.8125 10 21 C5.03338506 17.30687607 1.54129209 11.58909601 -1 6 C-1.23046875 3.25 -1.23046875 3.25 -1 1 C-0.67 0.67 -0.34 0.34 0 0 Z " fill="#898989" transform="translate(94,183)"/>
<path d="M0 0 C0.33 0 0.66 0 1 0 C2.3213258 8.7419859 3.33165588 17.137418 3 26 C-1.0958948 21.9041052 -1.1292513 15.30858976 -1.1875 9.75 C-1.11960396 6.39698038 -0.8684792 3.25679699 0 0 Z " fill="#0B0B0B" transform="translate(97,56)"/>
<path d="M0 0 C0.33 0 0.66 0 1 0 C1 4.95 1 9.9 1 15 C3.31 15 5.62 15 8 15 C14.26538426 16.23070048 19.6250866 18.61146764 25 22 C24.67 22.66 24.34 23.32 24 24 C23.44054687 23.67386719 22.88109375 23.34773438 22.3046875 23.01171875 C15.06098676 19.06378539 8.0982495 17.50849746 0 16 C0 10.72 0 5.44 0 0 Z " fill="#787878" transform="translate(135,105)"/>
<path d="M0 0 C0.99 0 1.98 0 3 0 C3 0.66 3 1.32 3 2 C3.66 2 4.32 2 5 2 C5.66 1.34 6.32 0.68 7 0 C9 2 9 2 9.125 4.625 C9.08375 5.40875 9.0425 6.1925 9 7 C8.01 7 7.02 7 6 7 C6 6.34 6 5.68 6 5 C5.34 5 4.68 5 4 5 C4.16371094 5.54140625 4.32742187 6.0828125 4.49609375 6.640625 C5.08590587 9.40222593 5.09609308 11.92818139 5.0625 14.75 C5.05347656 15.73484375 5.04445312 16.7196875 5.03515625 17.734375 C5.02355469 18.48203125 5.01195312 19.2296875 5 20 C4.67 20 4.34 20 4 20 C3.81824219 18.82244141 3.81824219 18.82244141 3.6328125 17.62109375 C2.72737415 11.94469178 1.70740904 6.48810048 0 1 C0 0.67 0 0.34 0 0 Z " fill="#5D5E5E" transform="translate(238,77)"/>
<path d="M0 0 C0.66 0.66 1.32 1.32 2 2 C1.01 3.485 1.01 3.485 0 5 C-0.16685689 7.45032354 -0.16685689 7.45032354 0 10.0625 C0.125 12.72265625 0.125 12.72265625 0 15 C-0.66 15.66 -1.32 16.32 -2 17 C-2.33 15.35 -2.66 13.7 -3 12 C-3.66 12 -4.32 12 -5 12 C-5.33 12.66 -5.66 13.32 -6 14 C-6 12.68 -6 11.36 -6 10 C-5.34 10 -4.68 10 -4 10 C-4.0825 9.0925 -4.165 8.185 -4.25 7.25 C-4 4 -4 4 -2 1.625 C-1.34 1.08875 -0.68 0.5525 0 0 Z " fill="#3D3D3D" transform="translate(35,77)"/>
<path d="M0 0 C2.71070827 2.71070827 2.29911271 4.21586047 2.3125 8 C2.23772566 14.11110285 1.15973824 19.30497595 -1 25 C-1.66 25 -2.32 25 -3 25 C-3 23.68 -3 22.36 -3 21 C-3.66 20.67 -4.32 20.34 -5 20 C-4.01 20 -3.02 20 -2 20 C-1.13580777 17.40742331 -0.82419068 15.65962293 -0.68359375 12.98828125 C-0.64169922 12.23095703 -0.59980469 11.47363281 -0.55664062 10.69335938 C-0.51732422 9.90767578 -0.47800781 9.12199219 -0.4375 8.3125 C-0.37272461 7.11657227 -0.37272461 7.11657227 -0.30664062 5.89648438 C-0.20072632 3.93118553 -0.09987449 1.96561504 0 0 Z " fill="#686868" transform="translate(247,85)"/>
<path d="M0 0 C1.86662744 1.57640756 2.89430846 2.49619304 3.40405273 4.92602539 C3.41380127 5.64266357 3.4235498 6.35930176 3.43359375 7.09765625 C3.44455078 7.89518311 3.45550781 8.69270996 3.46679688 9.5144043 C3.45712891 10.35527588 3.44746094 11.19614746 3.4375 12.0625 C3.43427734 12.91561768 3.43105469 13.76873535 3.42773438 14.64770508 C3.28626168 21.04995452 2.23447498 26.38298764 -1 32 C-2.14157393 28.18939406 -1.56699874 26.6563304 0 23 C1.74430643 15.32505171 1.1222215 7.7152728 0 0 Z " fill="#929292" transform="translate(175,163)"/>
<path d="M0 0 C0.99 0.33 1.98 0.66 3 1 C2.21625 1.7425 1.4325 2.485 0.625 3.25 C-3.61992286 7.69706205 -4.29576135 10.89659839 -5 17 C-5.66 16.67 -6.32 16.34 -7 16 C-7 15.34 -7 14.68 -7 14 C-7.66 14 -8.32 14 -9 14 C-11.09230769 9.56923077 -11.09230769 9.56923077 -10.625 6.6875 C-10.41875 6.130625 -10.2125 5.57375 -10 5 C-9.01 6.98 -8.02 8.96 -7 11 C-6.34 9.02 -5.68 7.04 -5 5 C-4.34 5 -3.68 5 -3 5 C-2.690625 4.360625 -2.38125 3.72125 -2.0625 3.0625 C-1 1 -1 1 0 0 Z " fill="#929292" transform="translate(194,95)"/>
<path d="M0 0 C1.68609375 0.24556641 1.68609375 0.24556641 3.40625 0.49609375 C8.11720476 1.0849631 12.75873841 1.11269251 17.5 1.0625 C18.73363281 1.05573242 18.73363281 1.05573242 19.9921875 1.04882812 C21.99482396 1.03718489 23.99742227 1.01925556 26 1 C25.360625 1.309375 24.72125 1.61875 24.0625 1.9375 C22.06389179 2.8345163 22.06389179 2.8345163 21 4 C18.14122091 4.23701239 15.30116703 4.42219182 12.4375 4.5625 C11.63119141 4.60568359 10.82488281 4.64886719 9.99414062 4.69335938 C7.99631195 4.79975262 5.9981793 4.90040888 4 5 C4 4.34 4 3.68 4 3 C2.0399719 1.36323743 2.0399719 1.36323743 0 0 Z " fill="#171717" transform="translate(116,97)"/>
<path d="M0 0 C3.22052097 0.95745218 4.71157349 1.5940664 6.6875 4.375 C7.79166667 6.58333333 8.89583333 8.79166667 10 11 C10.99 8.03 11.98 5.06 13 2 C13.33 2 13.66 2 14 2 C14.59551568 7.71695055 13.40162446 10.69983599 10.2890625 15.49609375 C9.86367187 15.99238281 9.43828125 16.48867187 9 17 C8.34 17 7.68 17 7 17 C6.95101562 16.39671875 6.90203125 15.7934375 6.8515625 15.171875 C6.77679688 14.37265625 6.70203125 13.5734375 6.625 12.75 C6.52058594 11.56664063 6.52058594 11.56664063 6.4140625 10.359375 C5.5986864 5.71326968 3.39652369 3.17008878 0 0 Z " fill="#9B9B9B" transform="translate(228,95)"/>
<path d="M0 0 C-0.78503906 0.29132812 -1.57007812 0.58265625 -2.37890625 0.8828125 C-9.00366802 3.46768887 -13.9083419 6.0240614 -19 11 C-18.67 8.69 -18.34 6.38 -18 4 C-17.40832031 3.80664062 -16.81664063 3.61328125 -16.20703125 3.4140625 C-15.41683594 3.15367188 -14.62664062 2.89328125 -13.8125 2.625 C-12.99007812 2.35429688 -12.16765625 2.08359375 -11.3203125 1.8046875 C-8.8893918 0.99816296 -8.8893918 0.99816296 -6.1875 -0.25 C-3.6314119 -1.12637306 -2.53450389 -0.74387955 0 0 Z " fill="#555555" transform="translate(125,37)"/>
<path d="M0 0 C0.99 0 1.98 0 3 0 C4.38903267 1.62053812 5.71332828 3.29705213 7 5 C10.35146733 8.61605686 13.66870192 11.60396276 18 14 C20.31026274 13.88556744 20.31026274 13.88556744 22 13 C20.35 14.65 18.7 16.3 17 18 C14.35011735 15.37906078 11.70579857 12.75257802 9.0625 10.125 C8.30775391 9.37863281 7.55300781 8.63226563 6.77539062 7.86328125 C6.05673828 7.14785156 5.33808594 6.43242188 4.59765625 5.6953125 C3.93258057 5.03547363 3.26750488 4.37563477 2.58227539 3.69580078 C1 2 1 2 0 0 Z " fill="#8D8D8D" transform="translate(78,116)"/>
<path d="M0 0 C4.75 1.875 4.75 1.875 7 3 C12.58841057 3.57091817 16.29489464 3.27931586 21 0 C21.66 0.33 22.32 0.66 23 1 C23 1.99 23 2.98 23 4 C16.5926168 5.7985637 11.11952844 7.23603957 4.6875 4.6875 C2 3 2 3 0 0 Z " fill="#888887" transform="translate(119,187)"/>
<path d="M0 0 C-1.66463038 4.28642324 -4.79075837 7.08617217 -8 10.25 C-8.5465625 10.80429688 -9.093125 11.35859375 -9.65625 11.9296875 C-13.7466133 16 -13.7466133 16 -16 16 C-13.77974326 10.75212044 -6.38096531 0 0 0 Z " fill="#0D0E0D" transform="translate(183,118)"/>
<path d="M0 0 C0.33 0.66 0.66 1.32 1 2 C0.67 2.66 0.34 3.32 0 4 C-0.41913263 9.96532949 -0.40797172 15.43156539 2 21 C-1.93237728 17.32978121 -3.77484078 15.02643301 -4.375 9.625 C-3.93716093 5.39255567 -2.58860406 3.31664895 0 0 Z " fill="#666666" transform="translate(117,166)"/>
<path d="M0 0 C1.98 0 3.96 0 6 0 C6 0.66 6 1.32 6 2 C6.825 2.185625 7.65 2.37125 8.5 2.5625 C15.4217366 5.4053561 20.26697407 10.62274738 24 17 C23.67 17.66 23.34 18.32 23 19 C22.63648438 18.48050781 22.27296875 17.96101563 21.8984375 17.42578125 C15.71249878 8.84477395 9.68353491 5.04916495 0 1 C0 0.67 0 0.34 0 0 Z " fill="#828282" transform="translate(220,58)"/>
<path d="M0 0 C0.98226562 0.30744141 0.98226562 0.30744141 1.984375 0.62109375 C8.99972911 2.69201043 15.70286355 3.63068594 23 4 C22.67 4.66 22.34 5.32 22 6 C16.55306686 6.09688221 11.36095333 6.12862175 6 5 C6 4.34 6 3.68 6 3 C3.03 2.505 3.03 2.505 0 2 C0 1.34 0 0.68 0 0 Z " fill="#979797" transform="translate(196,125)"/>
<path d="M0 0 C4.186118 1.39537267 4.98029188 3.66439912 6.984375 7.44921875 C8.52426575 11.31671359 8.74211818 14.9144441 8 19 C6.97265625 21.26171875 6.97265625 21.26171875 6 23 C5.34 23 4.68 23 4 23 C4.165 22.34 4.33 21.68 4.5 21 C5.94533647 12.32798117 4.33016376 7.54685683 0 0 Z " fill="#636363" transform="translate(224,71)"/>
<path d="M0 0 C0.33 0.99 0.66 1.98 1 3 C0.44054687 2.84015625 -0.11890625 2.6803125 -0.6953125 2.515625 C-7.28673929 1.0409329 -13.2060701 1.37879381 -19 5 C-19.99 5.495 -19.99 5.495 -21 6 C-20.04908327 3.49303771 -19.06198622 2.05598755 -17.0625 0.25 C-11.69496921 -1.9408289 -5.48383512 -1.82794504 0 0 Z " fill="#676767" transform="translate(57,71)"/>
<path d="M0 0 C3 1 3 1 3.94921875 2.84765625 C4.19285156 3.57855469 4.43648437 4.30945313 4.6875 5.0625 C4.93886719 5.79597656 5.19023437 6.52945313 5.44921875 7.28515625 C5.63097656 7.85105469 5.81273437 8.41695312 6 9 C6.66 7.35 7.32 5.7 8 4 C8.75 5.5625 8.75 5.5625 9 8 C7.86915563 10.50286409 6.47860484 12.67007722 5 15 C4.34 15 3.68 15 3 15 C2.86722656 14.08476563 2.73445312 13.16953125 2.59765625 12.2265625 C2.42105469 11.03804687 2.24445313 9.84953125 2.0625 8.625 C1.88847656 7.44164063 1.71445313 6.25828125 1.53515625 5.0390625 C1.16537214 2.09297619 1.16537214 2.09297619 0 0 Z " fill="#8A8A8A" transform="translate(150,70)"/>
<path d="M0 0 C0 0.66 0 1.32 0 2 C-0.58007812 2.02578125 -1.16015625 2.0515625 -1.7578125 2.078125 C-9.39004666 2.63228062 -13.77907042 5.37746045 -19 11 C-18.5232419 6.70917714 -16.23772992 4.67464645 -13 2 C-8.55451657 0.3026336 -4.74011418 -0.23122508 0 0 Z " fill="#161616" transform="translate(52,68)"/>
<path d="M0 0 C2.375 1.0625 2.375 1.0625 4 2 C3.01 2.33 2.02 2.66 1 3 C0.34 2.67 -0.32 2.34 -1 2 C-2.99960012 1.960008 -5.00047242 1.95653201 -7 2 C-7.61488281 3.17369141 -7.61488281 3.17369141 -8.2421875 4.37109375 C-8.78101562 5.38300781 -9.31984375 6.39492187 -9.875 7.4375 C-10.40867187 8.44683594 -10.94234375 9.45617187 -11.4921875 10.49609375 C-13 13 -13 13 -15 14 C-14.33641326 10.48544802 -12.90476355 7.86191913 -11.0625 4.8125 C-10.53785156 3.93207031 -10.01320313 3.05164063 -9.47265625 2.14453125 C-6.7189711 -1.86547709 -4.4268898 -0.97391576 0 0 Z " fill="#939393" transform="translate(109,149)"/>
<path d="M0 0 C7.49179424 2.14051264 12.43840068 5.66444538 17 12 C18.3125 15.375 18.3125 15.375 19 18 C17.12766965 16.30598682 15.91832599 14.85220893 14.6875 12.625 C10.71439832 6.4446196 5.74000215 4.20793174 -1 2 C-0.67 1.34 -0.34 0.68 0 0 Z " fill="#818181" transform="translate(221,64)"/>
<path d="M0 0 C6.70518586 -0.19818283 12.65176798 -0.30844801 19 2 C15.21332311 4.55698285 11.5877666 4.03499684 7.25 3.625 C6.55261719 3.56828125 5.85523438 3.5115625 5.13671875 3.453125 C3.42360688 3.31232128 1.71165389 3.15754028 0 3 C0 2.01 0 1.02 0 0 Z " fill="#070808" transform="translate(207,59)"/>
<path d="M0 0 C0.66 0 1.32 0 2 0 C4.13878911 4.91921495 6.16173311 9.87446405 8.1328125 14.86328125 C8.9682707 17.00156543 8.9682707 17.00156543 10 19 C7 18 7 18 5.3125 15.0625 C4 12 4 12 4 10 C3.34 10 2.68 10 2 10 C1.34 6.7 0.68 3.4 0 0 Z " fill="#5C5C5C" transform="translate(83,184)"/>
<path d="M0 0 C1.32 0 2.64 0 4 0 C4.33 1.32 4.66 2.64 5 4 C4.34 4 3.68 4 3 4 C2.34 5.65 1.68 7.3 1 9 C-0.32 9 -1.64 9 -3 9 C-2.44271087 5.65626525 -1.64826111 2.96687001 0 0 Z " fill="#131514" transform="translate(159,76)"/>
<path d="M0 0 C2.08211563 2.71473484 3.9753295 5.49018682 5.8125 8.375 C8.5015475 12.45237779 11.42649346 15.68174393 15 19 C14.67 19.66 14.34 20.32 14 21 C12.38643496 19.46817277 10.78453393 17.92405437 9.1875 16.375 C7.84751953 15.08722656 7.84751953 15.08722656 6.48046875 13.7734375 C3.69387201 10.65771516 1 7.34524279 1 3 C0.34 2.67 -0.32 2.34 -1 2 C-0.67 1.34 -0.34 0.68 0 0 Z " fill="#767676" transform="translate(81,199)"/>
<path d="M0 0 C0.33 0.66 0.66 1.32 1 2 C0.45730469 2.44730469 -0.08539063 2.89460938 -0.64453125 3.35546875 C-6.61423969 8.40014129 -9.7128228 12.43472156 -12 20 C-13.59154519 15.21446342 -12.18407816 11.40175752 -10 7 C-7.625 5.1875 -7.625 5.1875 -5 4 C-3.31522656 2.68962066 -1.64351457 1.36176922 0 0 Z " fill="#767676" transform="translate(196,67)"/>
<path d="M0 0 C-0.33 0.99 -0.66 1.98 -1 3 C-6.94 3 -12.88 3 -19 3 C-19 2.67 -19 2.34 -19 2 C-16.95928485 1.66089006 -14.91737379 1.32897296 -12.875 1 C-11.73804688 0.814375 -10.60109375 0.62875 -9.4296875 0.4375 C-6.23862398 0.03043951 -3.21182209 -0.07809902 0 0 Z " fill="#838383" transform="translate(143,229)"/>
<path d="M0 0 C-0.73605469 0.30292969 -1.47210938 0.60585937 -2.23046875 0.91796875 C-7.84624905 3.32897086 -12.00666468 5.36257833 -16 10 C-16.99 10.495 -16.99 10.495 -18 11 C-17.1270352 7.15787713 -16.57051239 5.41166711 -13.3203125 3.06640625 C-12.26585937 2.57011719 -11.21140625 2.07382813 -10.125 1.5625 C-9.07570313 1.04816406 -8.02640625 0.53382812 -6.9453125 0.00390625 C-3.98095973 -1.00648985 -2.84289932 -1.16050721 0 0 Z " fill="#747474" transform="translate(42,65)"/>
<path d="M0 0 C-0.99 2.97 -1.98 5.94 -3 9 C-4.32 8.67 -5.64 8.34 -7 8 C-6.6875 5.125 -6.6875 5.125 -6 2 C-3 0 -3 0 0 0 Z " fill="#0D0E0E" transform="translate(105,47)"/>
<path d="M0 0 C-2.94111124 3.3104925 -5.45570213 4.85717904 -9.625 6.3125 C-11.06746094 6.83263672 -11.06746094 6.83263672 -12.5390625 7.36328125 C-15 8 -15 8 -17 7 C-16.36191406 6.81824219 -15.72382813 6.63648438 -15.06640625 6.44921875 C-14.24011719 6.19785156 -13.41382813 5.94648438 -12.5625 5.6875 C-11.32693359 5.32205078 -11.32693359 5.32205078 -10.06640625 4.94921875 C-9.38449219 4.63597656 -8.70257813 4.32273438 -8 4 C-7.67 3.01 -7.34 2.02 -7 1 C-4.53721199 -0.231394 -2.7204945 -0.07159196 0 0 Z " fill="#5F5F5F" transform="translate(161,222)"/>
<path d="M0 0 C1.1446875 0.12375 1.1446875 0.12375 2.3125 0.25 C1.02284824 1.62562854 -0.31439293 2.95766393 -1.6875 4.25 C-2.3475 4.25 -3.0075 4.25 -3.6875 4.25 C-3.64625 5.178125 -3.605 6.10625 -3.5625 7.0625 C-3.6875 10.25 -3.6875 10.25 -5.6875 13.25 C-6.3475 13.25 -7.0075 13.25 -7.6875 13.25 C-7.6875 12.59 -7.6875 11.93 -7.6875 11.25 C-7.0275 11.25 -6.3675 11.25 -5.6875 11.25 C-5.749375 10.1775 -5.81125 9.105 -5.875 8 C-5.6875 4.25 -5.6875 4.25 -4.5 1.8125 C-2.6875 0.25 -2.6875 0.25 0 0 Z " fill="#5D5E5E" transform="translate(145.6875,200.75)"/>
<path d="M0 0 C-0.33 0.66 -0.66 1.32 -1 2 C-3.69885731 2.57422496 -6.23792697 3 -9 3 C-11.34570085 3.97063483 -13.68020619 4.96898053 -16 6 C-16 5.34 -16 4.68 -16 4 C-14.02 3.34 -12.04 2.68 -10 2 C-10 1.34 -10 0.68 -10 0 C-6.30581799 -1.231394 -3.7943739 -0.64432764 0 0 Z " fill="#5C5C5C" transform="translate(117,123)"/>
<path d="M0 0 C1.2065625 0.495 1.2065625 0.495 2.4375 1 C4.69681125 2.06059041 4.69681125 2.06059041 6 2 C9 2 9 2 10.6875 3.3125 C12 5 12 5 12 8 C6.80421104 6.63919813 3.86388964 4.58789752 0 1 C0 0.67 0 0.34 0 0 Z " fill="#0B0C0B" transform="translate(64,66)"/>
<path d="M0 0 C4.26769478 0.25104087 6.49837505 0.59651906 9.875 3.3125 C11.87181305 5.83788121 12.39457487 6.97931505 13 10 C12.54109375 9.57847656 12.0821875 9.15695313 11.609375 8.72265625 C10.99578125 8.17480469 10.3821875 7.62695312 9.75 7.0625 C9.14671875 6.51722656 8.5434375 5.97195312 7.921875 5.41015625 C6.09499207 3.87848188 6.09499207 3.87848188 3.890625 3.49609375 C2 3 2 3 0 0 Z " fill="#131313" transform="translate(215,69)"/>
<path d="M0 0 C1.74965358 -0.05429959 3.49979787 -0.09292823 5.25 -0.125 C6.22453125 -0.14820312 7.1990625 -0.17140625 8.203125 -0.1953125 C11.0196498 0.00137219 12.60949036 0.55431084 15 2 C14.34 2.66 13.68 3.32 13 4 C9.9609375 3.9765625 9.9609375 3.9765625 6.375 3.625 C5.18648437 3.51414063 3.99796875 3.40328125 2.7734375 3.2890625 C1.85820313 3.19367187 0.94296875 3.09828125 0 3 C0 2.01 0 1.02 0 0 Z " fill="#070807" transform="translate(126,31)"/>
<path d="M0 0 C0.33 0.99 0.66 1.98 1 3 C-0.98 2.34 -2.96 1.68 -5 1 C-5 1.66 -5 2.32 -5 3 C-9.75 4.125 -9.75 4.125 -12 3 C-11.67 2.01 -11.34 1.02 -11 0 C-6.98195309 -0.84098656 -3.98196457 -1.05404945 0 0 Z " fill="#6F6F6F" transform="translate(114,200)"/>
<path d="M0 0 C0.66 0 1.32 0 2 0 C1.01 3.96 0.02 7.92 -1 12 C-1.66 12 -2.32 12 -3 12 C-3.625 9.6875 -3.625 9.6875 -4 7 C-3.34 6.01 -2.68 5.02 -2 4 C-1.34 4 -0.68 4 0 4 C0 2.68 0 1.36 0 0 Z " fill="#5A5A5A" transform="translate(183,188)"/>
<path d="M0 0 C1.32 0.33 2.64 0.66 4 1 C4 1.66 4 2.32 4 3 C5.3303125 3.4021875 5.3303125 3.4021875 6.6875 3.8125 C9.76877548 4.91710819 12.26221405 6.22849144 15 8 C13.359375 8.70703125 13.359375 8.70703125 11 9 C8.203125 7.63671875 8.203125 7.63671875 5.25 5.6875 C4.26515625 5.05199219 3.2803125 4.41648437 2.265625 3.76171875 C1.51796875 3.18035156 0.7703125 2.59898438 0 2 C0 1.34 0 0.68 0 0 Z " fill="#898989" transform="translate(106,92)"/>
<path d="M0 0 C0.33 0.99 0.66 1.98 1 3 C-0.6875 4.5625 -0.6875 4.5625 -3 6 C-5.75 5.6875 -5.75 5.6875 -8 5 C-8 4.34 -8 3.68 -8 3 C-8.99 3 -9.98 3 -11 3 C-11 2.34 -11 1.68 -11 1 C-7.7 1.33 -4.4 1.66 -1 2 C-0.67 1.34 -0.34 0.68 0 0 Z " fill="#7A7A7A" transform="translate(160,198)"/>
<path d="M0 0 C0.66 0.33 1.32 0.66 2 1 C0.92807816 2.3218362 -0.15802695 3.63217927 -1.25 4.9375 C-1.85328125 5.66839844 -2.4565625 6.39929688 -3.078125 7.15234375 C-5.10741134 9.10326334 -6.254407 9.61731779 -9 10 C-9.99 8.68 -10.98 7.36 -12 6 C-10.02 6.99 -10.02 6.99 -8 8 C-6.85073734 7.04578192 -5.70569459 6.08647955 -4.5625 5.125 C-3.60537109 4.32449219 -3.60537109 4.32449219 -2.62890625 3.5078125 C-0.89194996 2.0777243 -0.89194996 2.0777243 0 0 Z " fill="#929292" transform="translate(173,123)"/>
<path d="M0 0 C3 3.625 3 3.625 3 7 C1.68 7.33 0.36 7.66 -1 8 C-1.66 5.69 -2.32 3.38 -3 1 C-2.01 0.67 -1.02 0.34 0 0 Z " fill="#0C0D0D" transform="translate(78,75)"/>
<path d="M0 0 C0.99 0.33 1.98 0.66 3 1 C1.27072741 6.18781778 -2.21904213 8.60952106 -7 11 C-5.68 8.36 -4.36 5.72 -3 3 C-1.68 3 -0.36 3 1 3 C0.67 2.01 0.34 1.02 0 0 Z " fill="#7E7E7E" transform="translate(187,122)"/>
<path d="M0 0 C-3 2 -3 2 -6 2 C-6.33 2.66 -6.66 3.32 -7 4 C-9.5625 4.625 -9.5625 4.625 -12 5 C-12 4.01 -12 3.02 -12 2 C-10.37787941 1.47026689 -8.75218416 0.95146893 -7.125 0.4375 C-6.22007812 0.14746094 -5.31515625 -0.14257812 -4.3828125 -0.44140625 C-2 -1 -2 -1 0 0 Z " fill="#636363" transform="translate(150,97)"/>
<path d="M0 0 C1.65 0.33 3.3 0.66 5 1 C5 2.65 5 4.3 5 6 C3.68 6.33 2.36 6.66 1 7 C-0.0625 4.625 -0.0625 4.625 -1 2 C-0.67 1.34 -0.34 0.68 0 0 Z " fill="#161717" transform="translate(149,36)"/>
<path d="M0 0 C0.66 0 1.32 0 2 0 C1.79503906 0.59167969 1.59007813 1.18335938 1.37890625 1.79296875 C0.0002429 5.83660816 -1.31750847 9.76855249 -2 14 C-2.33 14 -2.66 14 -3 14 C-3.34615998 8.34605369 -2.43425238 4.96993194 0 0 Z " fill="#0E0E0E" transform="translate(116,47)"/>
<path d="M0 0 C-2.50475817 2.50475817 -4.07589476 3.95701836 -7.6875 4.125 C-8.8321875 4.063125 -8.8321875 4.063125 -10 4 C-4.75 -1.425 -4.75 -1.425 0 0 Z " fill="#242424" transform="translate(128,42)"/>
<path d="M0 0 C0.99 0.33 1.98 0.66 3 1 C3.33 1.99 3.66 2.98 4 4 C2.03533587 5.06775224 0.03144641 6.06553465 -2 7 C-2.66 6.67 -3.32 6.34 -4 6 C-3.01 5.67 -2.02 5.34 -1 5 C-1 4.34 -1 3.68 -1 3 C-1.66 2.67 -2.32 2.34 -3 2 C-2.01 1.34 -1.02 0.68 0 0 Z " fill="#0A0B0A" transform="translate(116,33)"/>
<path d="M0 0 C3.125 -0.1875 3.125 -0.1875 6 0 C5.278125 0.556875 4.55625 1.11375 3.8125 1.6875 C1.02542701 3.97909334 -1.48641528 6.41459857 -4 9 C-2.94124926 5.59687262 -1.99097846 2.98646769 0 0 Z " fill="#0D0D0D" transform="translate(102,150)"/>
<path d="M0 0 C1.23593891 3.70781672 0.5678132 4.67510253 -0.9375 8.1875 C-1.31777344 9.08855469 -1.69804687 9.98960937 -2.08984375 10.91796875 C-2.54037109 11.94857422 -2.54037109 11.94857422 -3 13 C-4.66598857 7.95760794 -2.27200378 4.54400756 0 0 Z " fill="#808080" transform="translate(177,182)"/>
<path d="M0 0 C0.99 0.495 0.99 0.495 2 1 C3.29411765 8.41176471 3.29411765 8.41176471 2 11 C1.34 11 0.68 11 0 11 C0 7.37 0 3.74 0 0 Z " fill="#848484" transform="translate(71,102)"/>
<path d="M0 0 C0.66 0 1.32 0 2 0 C1.125 5.75 1.125 5.75 0 8 C-0.66 8 -1.32 8 -2 8 C-2 6.68 -2 5.36 -2 4 C-2.66 3.67 -3.32 3.34 -4 3 C-3.01 3 -2.02 3 -1 3 C-0.67 2.01 -0.34 1.02 0 0 Z " fill="#4C4C4C" transform="translate(246,102)"/>
<path d="M0 0 C0.99 0.33 1.98 0.66 3 1 C3 3.97 3 6.94 3 10 C2.01 10 1.02 10 0 10 C0 6.7 0 3.4 0 0 Z " fill="#1E1E1E" transform="translate(99,61)"/>
<path d="M0 0 C0.66 0 1.32 0 2 0 C2 0.66 2 1.32 2 2 C2.66 2 3.32 2 4 2 C4 2.66 4 3.32 4 4 C1 6 1 6 -1.1875 5.625 C-1.785625 5.41875 -2.38375 5.2125 -3 5 C-2.505 4.360625 -2.01 3.72125 -1.5 3.0625 C0.09802862 1.29025661 0.09802862 1.29025661 0 0 Z " fill="#1A1B1B" transform="translate(111,34)"/>
<path d="M0 0 C0.33 0.99 0.66 1.98 1 3 C-4.28 2.67 -9.56 2.34 -15 2 C-15 1.67 -15 1.34 -15 1 C-12.8750734 0.83240016 -10.75005624 0.66594799 -8.625 0.5 C-7.44164062 0.4071875 -6.25828125 0.314375 -5.0390625 0.21875 C-3.36213157 0.09804546 -1.68126944 0 0 0 Z " fill="#3C3B3C" transform="translate(222,127)"/>
<path d="M0 0 C0 2.31 0 4.62 0 7 C-0.99 7.33 -1.98 7.66 -3 8 C-3.6875 5.6875 -3.6875 5.6875 -4 3 C-1.72413793 0 -1.72413793 0 0 0 Z " fill="#121413" transform="translate(20,77)"/>
<path d="M0 0 C1.32 0.33 2.64 0.66 4 1 C3.25 2.9375 3.25 2.9375 2 5 C-0.125 5.75 -0.125 5.75 -2 6 C-1.34 4.02 -0.68 2.04 0 0 Z " fill="#0D0E0E" transform="translate(194,63)"/>
<path d="M0 0 C0.66 0.33 1.32 0.66 2 1 C2 1.99 2 2.98 2 4 C-0.97 4.66 -3.94 5.32 -7 6 C-7 5.34 -7 4.68 -7 4 C-1.7265625 0.77734375 -1.7265625 0.77734375 0 0 Z " fill="#787878" transform="translate(140,187)"/>
<path d="M0 0 C5.445 1.485 5.445 1.485 11 3 C10.34 3.66 9.68 4.32 9 5 C8.01 5 7.02 5 6 5 C6 4.34 6 3.68 6 3 C3.03 2.505 3.03 2.505 0 2 C0 1.34 0 0.68 0 0 Z " fill="#6A6A6A" transform="translate(196,125)"/>
<path d="M0 0 C0.66 1.32 1.32 2.64 2 4 C0.625 5.5 0.625 5.5 -1 7 C-1.66 7 -2.32 7 -3 7 C-2.25 2.25 -2.25 2.25 0 0 Z " fill="#363636" transform="translate(79,108)"/>
<path d="M0 0 C0.99 0.33 1.98 0.66 3 1 C3 1.99 3 2.98 3 4 C2.01 4.495 2.01 4.495 1 5 C0.34227572 8.02934491 0.34227572 8.02934491 0 11 C-0.33 11 -0.66 11 -1 11 C-1.33 7.7 -1.66 4.4 -2 1 C-1.34 0.67 -0.68 0.34 0 0 Z " fill="#1B1D1C" transform="translate(245,81)"/>
<path d="M0 0 C1.32 0 2.64 0 4 0 C4 0.99 4 1.98 4 3 C3.401875 3.2475 2.80375 3.495 2.1875 3.75 C-0.28647521 5.16370012 -1.43370255 6.65055383 -3 9 C-2.44271087 5.65626525 -1.64826111 2.96687001 0 0 Z " fill="#0A0B0A" transform="translate(159,76)"/>
<path d="M0 0 C2.29013653 3.4352048 2.17842973 4.985331 2 9 C1.34 9 0.68 9 0 9 C-0.87890625 2.84765625 -0.87890625 2.84765625 -1 1 C-0.67 0.67 -0.34 0.34 0 0 Z " fill="#232323" transform="translate(76,170)"/>
<path d="M0 0 C0 3.10551666 -0.5393715 4.35261084 -2 7 C-2.99 6.67 -3.98 6.34 -5 6 C-3.63016497 2.83884224 -3.0109362 2.0072908 0 0 Z " fill="#727272" transform="translate(76,119)"/>
<path d="M0 0 C2.18975773 3.28463659 2.99806563 6.20696275 4 10 C3.01 9.67 2.02 9.34 1 9 C0.234375 7.1875 0.234375 7.1875 -0.25 5 C-0.42015625 4.278125 -0.5903125 3.55625 -0.765625 2.8125 C-0.84296875 2.214375 -0.9203125 1.61625 -1 1 C-0.67 0.67 -0.34 0.34 0 0 Z " fill="#A2A2A2" transform="translate(13,99)"/>
<path d="M0 0 C0.33 0 0.66 0 1 0 C1.33 2.31 1.66 4.62 2 7 C1.01 7.33 0.02 7.66 -1 8 C-1.93065133 5.39417629 -2.14917407 4.35801776 -1.0625 1.75 C-0.711875 1.1725 -0.36125 0.595 0 0 Z " fill="#636363" transform="translate(15,78)"/>
<path d="M0 0 C2.31 1.98 4.62 3.96 7 6 C6.67 6.99 6.34 7.98 6 9 C4.99406757 7.8803014 3.9954151 6.7540588 3 5.625 C2.443125 4.99851562 1.88625 4.37203125 1.3125 3.7265625 C0 2 0 2 0 0 Z " fill="#8C8C8C" transform="translate(154,38)"/>
<path d="M0 0 C0.66 0 1.32 0 2 0 C4.29013653 3.4352048 4.17842973 4.985331 4 9 C3.67 8.01 3.34 7.02 3 6 C2.34 6 1.68 6 1 6 C0.67 4.02 0.34 2.04 0 0 Z " fill="#6B6B6B" transform="translate(83,184)"/>
<path d="M0 0 C1.30048841 2.60097682 1.56471422 5.13955062 2 8 C1.34 8 0.68 8 0 8 C-1.98 4.535 -1.98 4.535 -4 1 C-2.68 0.67 -1.36 0.34 0 0 Z " fill="#696969" transform="translate(19,108)"/>
<path d="M0 0 C0.99 0.33 1.98 0.66 3 1 C0.36 2.98 -2.28 4.96 -5 7 C-3.75023244 3.34683329 -3.32901247 2.21934164 0 0 Z " fill="#090909" transform="translate(203,70)"/>
<path d="M0 0 C0 0.99 0 1.98 0 3 C-0.639375 3.12375 -1.27875 3.2475 -1.9375 3.375 C-2.618125 3.58125 -3.29875 3.7875 -4 4 C-4.33 4.66 -4.66 5.32 -5 6 C-5 4.35 -5 2.7 -5 1 C-3 0 -3 0 0 0 Z " fill="#181918" transform="translate(202,62)"/>
<path d="M0 0 C0.66 0.33 1.32 0.66 2 1 C0.02 1.99 0.02 1.99 -2 3 C-1.34 2.01 -0.68 1.02 0 0 Z " fill="#FFFFFF" transform="translate(104,34)"/>
<path d="M0 0 C0.99 0.33 1.98 0.66 3 1 C2.01 1 1.02 1 0 1 C0 0.67 0 0.34 0 0 Z " fill="#FFFFFF" transform="translate(254,0)"/>
<path d="M0 0 C0.99 0.495 0.99 0.495 2 1 C1.01 1.495 1.01 1.495 0 2 C0 1.34 0 0.68 0 0 Z " fill="#000000" transform="translate(198,69)"/>
<path d="M0 0 C0.66 0 1.32 0 2 0 C1.67 0.66 1.34 1.32 1 2 C0.67 1.34 0.34 0.68 0 0 Z " fill="#000000" transform="translate(61,69)"/>
<path d="" fill="#FFFFFF" transform="translate(0,0)"/>
<path d="M0 0 C2 1 2 1 2 1 Z " fill="#000000" transform="translate(118,40)"/>
<path d="" fill="#FFFFFF" transform="translate(0,0)"/>
<path d="" fill="#FFFFFF" transform="translate(0,0)"/>
<path d="" fill="#000000" transform="translate(0,0)"/>
<path d="" fill="#000000" transform="translate(0,0)"/>
<path d="" fill="#000000" transform="translate(0,0)"/>
<path d="" fill="#000000" transform="translate(0,0)"/>
<path d="" fill="#000000" transform="translate(0,0)"/>
<path d="" fill="#000000" transform="translate(0,0)"/>
<path d="" fill="#000000" transform="translate(0,0)"/>
<path d="" fill="#000000" transform="translate(0,0)"/>
<path d="" fill="#000000" transform="translate(0,0)"/>
<path d="" fill="#000000" transform="translate(0,0)"/>
<path d="" fill="#000000" transform="translate(0,0)"/>
<path d="" fill="#000000" transform="translate(0,0)"/>
<path d="" fill="#000000" transform="translate(0,0)"/>
<path d="" fill="#000000" transform="translate(0,0)"/>
<path d="" fill="#000000" transform="translate(0,0)"/>
<path d="" fill="#000000" transform="translate(0,0)"/>
<path d="" fill="#000000" transform="translate(0,0)"/>
<path d="" fill="#000000" transform="translate(0,0)"/>
<path d="" fill="#000000" transform="translate(0,0)"/>
<path d="" fill="#000000" transform="translate(0,0)"/>
<path d="" fill="#000000" transform="translate(0,0)"/>
<path d="" fill="#000000" transform="translate(0,0)"/>
<path d="" fill="#000000" transform="translate(0,0)"/>
<path d="" fill="#000000" transform="translate(0,0)"/>
<path d="" fill="#000000" transform="translate(0,0)"/>
<path d="" fill="#000000" transform="translate(0,0)"/>
<path d="" fill="#000000" transform="translate(0,0)"/>
<path d="" fill="#000000" transform="translate(0,0)"/>
<path d="" fill="#000000" transform="translate(0,0)"/>
<path d="" fill="#000000" transform="translate(0,0)"/>
<path d="" fill="#000000" transform="translate(0,0)"/>
<path d="" fill="#000000" transform="translate(0,0)"/>
<path d="" fill="#000000" transform="translate(0,0)"/>
<path d="" fill="#000000" transform="translate(0,0)"/>
<path d="" fill="#000000" transform="translate(0,0)"/>
<path d="" fill="#000000" transform="translate(0,0)"/>
<path d="" fill="#000000" transform="translate(0,0)"/>
<path d="" fill="#000000" transform="translate(0,0)"/>
<path d="" fill="#000000" transform="translate(0,0)"/>
<path d="" fill="#000000" transform="translate(0,0)"/>
<path d="" fill="#000000" transform="translate(0,0)"/>
<path d="" fill="#000000" transform="translate(0,0)"/>
<path d="" fill="#000000" transform="translate(0,0)"/>
<path d="" fill="#000000" transform="translate(0,0)"/>
<path d="" fill="#000000" transform="translate(0,0)"/>
<path d="" fill="#000000" transform="translate(0,0)"/>
<path d="" fill="#000000" transform="translate(0,0)"/>
<path d="" fill="#000000" transform="translate(0,0)"/>
<path d="" fill="#000000" transform="translate(0,0)"/>
<path d="" fill="#000000" transform="translate(0,0)"/>
<path d="" fill="#000000" transform="translate(0,0)"/>
<path d="" fill="#000000" transform="translate(0,0)"/>
<path d="" fill="#000000" transform="translate(0,0)"/>
<path d="" fill="#000000" transform="translate(0,0)"/>
<path d="" fill="#000000" transform="translate(0,0)"/>
<path d="" fill="#000000" transform="translate(0,0)"/>
<path d="" fill="#000000" transform="translate(0,0)"/>
<path d="" fill="#000000" transform="translate(0,0)"/>
<path d="" fill="#000000" transform="translate(0,0)"/>
<path d="" fill="#000000" transform="translate(0,0)"/>
<path d="" fill="#000000" transform="translate(0,0)"/>
<path d="" fill="#000000" transform="translate(0,0)"/>
<path d="" fill="#000000" transform="translate(0,0)"/>
<path d="" fill="#000000" transform="translate(0,0)"/>
<path d="" fill="#000000" transform="translate(0,0)"/>
<path d="" fill="#000000" transform="translate(0,0)"/>
<path d="" fill="#000000" transform="translate(0,0)"/>
<path d="" fill="#000000" transform="translate(0,0)"/>
<path d="" fill="#000000" transform="translate(0,0)"/>
<path d="" fill="#000000" transform="translate(0,0)"/>
<path d="" fill="#000000" transform="translate(0,0)"/>
<path d="" fill="#000000" transform="translate(0,0)"/>
<path d="" fill="#000000" transform="translate(0,0)"/>
<path d="" fill="#000000" transform="translate(0,0)"/>
<path d="" fill="#000000" transform="translate(0,0)"/>
<path d="" fill="#000000" transform="translate(0,0)"/>
<path d="" fill="#000000" transform="translate(0,0)"/>
<path d="" fill="#000000" transform="translate(0,0)"/>
<path d="" fill="#000000" transform="translate(0,0)"/>
<path d="" fill="#000000" transform="translate(0,0)"/>
<path d="" fill="#000000" transform="translate(0,0)"/>
<path d="" fill="#000000" transform="translate(0,0)"/>
<path d="" fill="#000000" transform="translate(0,0)"/>
<path d="" fill="#000000" transform="translate(0,0)"/>
<path d="" fill="#000000" transform="translate(0,0)"/>
<path d="" fill="#000000" transform="translate(0,0)"/>
<path d="" fill="#000000" transform="translate(0,0)"/>
<path d="" fill="#000000" transform="translate(0,0)"/>
<path d="" fill="#000000" transform="translate(0,0)"/>
<path d="" fill="#000000" transform="translate(0,0)"/>
<path d="" fill="#000000" transform="translate(0,0)"/>
<path d="" fill="#000000" transform="translate(0,0)"/>
<path d="" fill="#000000" transform="translate(0,0)"/>
<path d="" fill="#000000" transform="translate(0,0)"/>
<path d="" fill="#000000" transform="translate(0,0)"/>
<path d="" fill="#000000" transform="translate(0,0)"/>
<path d="" fill="#000000" transform="translate(0,0)"/>
<path d="" fill="#000000" transform="translate(0,0)"/>
<path d="" fill="#000000" transform="translate(0,0)"/>
<path d="" fill="#000000" transform="translate(0,0)"/>
<path d="" fill="#000000" transform="translate(0,0)"/>
<path d="" fill="#000000" transform="translate(0,0)"/>
<path d="" fill="#000000" transform="translate(0,0)"/>
<path d="" fill="#000000" transform="translate(0,0)"/>
<path d="" fill="#000000" transform="translate(0,0)"/>
<path d="" fill="#000000" transform="translate(0,0)"/>
<path d="" fill="#000000" transform="translate(0,0)"/>
<path d="" fill="#000000" transform="translate(0,0)"/>
<path d="" fill="#000000" transform="translate(0,0)"/>
<path d="" fill="#000000" transform="translate(0,0)"/>
<path d="" fill="#000000" transform="translate(0,0)"/>
<path d="" fill="#000000" transform="translate(0,0)"/>
<path d="" fill="#000000" transform="translate(0,0)"/>
<path d="" fill="#000000" transform="translate(0,0)"/>
<path d="" fill="#000000" transform="translate(0,0)"/>
<path d="" fill="#000000" transform="translate(0,0)"/>
<path d="" fill="#000000" transform="translate(0,0)"/>
<path d="" fill="#000000" transform="translate(0,0)"/>
<path d="" fill="#000000" transform="translate(0,0)"/>
<path d="" fill="#000000" transform="translate(0,0)"/>
<path d="" fill="#000000" transform="translate(0,0)"/>
<path d="" fill="#000000" transform="translate(0,0)"/>
<path d="" fill="#000000" transform="translate(0,0)"/>
<path d="" fill="#000000" transform="translate(0,0)"/>
<path d="" fill="#000000" transform="translate(0,0)"/>
<path d="" fill="#000000" transform="translate(0,0)"/>
<path d="" fill="#FFFFFF" transform="translate(0,0)"/>
<path d="" fill="#000000" transform="translate(0,0)"/>
<path d="" fill="#000000" transform="translate(0,0)"/>
<path d="" fill="#000000" transform="translate(0,0)"/>
<path d="" fill="#000000" transform="translate(0,0)"/>
<path d="" fill="#000000" transform="translate(0,0)"/>
<path d="" fill="#000000" transform="translate(0,0)"/>
<path d="" fill="#000000" transform="translate(0,0)"/>
<path d="" fill="#000000" transform="translate(0,0)"/>
<path d="" fill="#000000" transform="translate(0,0)"/>
<path d="" fill="#000000" transform="translate(0,0)"/>
<path d="" fill="#000000" transform="translate(0,0)"/>
<path d="" fill="#000000" transform="translate(0,0)"/>
<path d="" fill="#000000" transform="translate(0,0)"/>
<path d="" fill="#000000" transform="translate(0,0)"/>
<path d="" fill="#000000" transform="translate(0,0)"/>
<path d="" fill="#000000" transform="translate(0,0)"/>
<path d="" fill="#000000" transform="translate(0,0)"/>
<path d="" fill="#000000" transform="translate(0,0)"/>
<path d="" fill="#000000" transform="translate(0,0)"/>
<path d="" fill="#000000" transform="translate(0,0)"/>
<path d="" fill="#000000" transform="translate(0,0)"/>
<path d="" fill="#000000" transform="translate(0,0)"/>
<path d="" fill="#000000" transform="translate(0,0)"/>
<path d="" fill="#000000" transform="translate(0,0)"/>
<path d="" fill="#000000" transform="translate(0,0)"/>
<path d="" fill="#000000" transform="translate(0,0)"/>
<path d="" fill="#000000" transform="translate(0,0)"/>
<path d="" fill="#000000" transform="translate(0,0)"/>
<path d="" fill="#000000" transform="translate(0,0)"/>
<path d="" fill="#000000" transform="translate(0,0)"/>
<path d="" fill="#000000" transform="translate(0,0)"/>
<path d="" fill="#000000" transform="translate(0,0)"/>
<path d="" fill="#000000" transform="translate(0,0)"/>
<path d="" fill="#000000" transform="translate(0,0)"/>
<path d="" fill="#000000" transform="translate(0,0)"/>
<path d="" fill="#000000" transform="translate(0,0)"/>
<path d="" fill="#000000" transform="translate(0,0)"/>
<path d="" fill="#000000" transform="translate(0,0)"/>
<path d="" fill="#000000" transform="translate(0,0)"/>
<path d="" fill="#000000" transform="translate(0,0)"/>
<path d="" fill="#000000" transform="translate(0,0)"/>
<path d="" fill="#000000" transform="translate(0,0)"/>
<path d="" fill="#000000" transform="translate(0,0)"/>
<path d="" fill="#000000" transform="translate(0,0)"/>
<path d="" fill="#000000" transform="translate(0,0)"/>
<path d="" fill="#000000" transform="translate(0,0)"/>
<path d="" fill="#000000" transform="translate(0,0)"/>
<path d="" fill="#000000" transform="translate(0,0)"/>
<path d="" fill="#000000" transform="translate(0,0)"/>
<path d="" fill="#000000" transform="translate(0,0)"/>
<path d="" fill="#000000" transform="translate(0,0)"/>
<path d="" fill="#000000" transform="translate(0,0)"/>
<path d="" fill="#000000" transform="translate(0,0)"/>
<path d="" fill="#000000" transform="translate(0,0)"/>
<path d="" fill="#000000" transform="translate(0,0)"/>
<path d="" fill="#000000" transform="translate(0,0)"/>
<path d="" fill="#000000" transform="translate(0,0)"/>
<path d="" fill="#000000" transform="translate(0,0)"/>
<path d="" fill="#000000" transform="translate(0,0)"/>
<path d="" fill="#000000" transform="translate(0,0)"/>
<path d="" fill="#000000" transform="translate(0,0)"/>
<path d="" fill="#000000" transform="translate(0,0)"/>
<path d="" fill="#000000" transform="translate(0,0)"/>
<path d="" fill="#FFFFFF" transform="translate(0,0)"/>
<path d="" fill="#000000" transform="translate(0,0)"/>
<path d="" fill="#000000" transform="translate(0,0)"/>
<path d="" fill="#000000" transform="translate(0,0)"/>
<path d="" fill="#000000" transform="translate(0,0)"/>
<path d="" fill="#000000" transform="translate(0,0)"/>
<path d="" fill="#000000" transform="translate(0,0)"/>
<path d="" fill="#000000" transform="translate(0,0)"/>
<path d="" fill="#000000" transform="translate(0,0)"/>
<path d="" fill="#000000" transform="translate(0,0)"/>
<path d="" fill="#000000" transform="translate(0,0)"/>
<path d="" fill="#000000" transform="translate(0,0)"/>
<path d="" fill="#000000" transform="translate(0,0)"/>
<path d="" fill="#000000" transform="translate(0,0)"/>
<path d="" fill="#000000" transform="translate(0,0)"/>
<path d="" fill="#000000" transform="translate(0,0)"/>
<path d="" fill="#000000" transform="translate(0,0)"/>
<path d="" fill="#000000" transform="translate(0,0)"/>
<path d="" fill="#000000" transform="translate(0,0)"/>
<path d="" fill="#000000" transform="translate(0,0)"/>
<path d="" fill="#000000" transform="translate(0,0)"/>
<path d="" fill="#000000" transform="translate(0,0)"/>
<path d="" fill="#000000" transform="translate(0,0)"/>
<path d="" fill="#000000" transform="translate(0,0)"/>
<path d="" fill="#000000" transform="translate(0,0)"/>
<path d="" fill="#000000" transform="translate(0,0)"/>
<path d="" fill="#000000" transform="translate(0,0)"/>
<path d="" fill="#000000" transform="translate(0,0)"/>
<path d="" fill="#000000" transform="translate(0,0)"/>
<path d="" fill="#000000" transform="translate(0,0)"/>
<path d="" fill="#FFFFFF" transform="translate(0,0)"/>
<path d="" fill="#000000" transform="translate(0,0)"/>
<path d="" fill="#000000" transform="translate(0,0)"/>
<path d="" fill="#000000" transform="translate(0,0)"/>
<path d="" fill="#000000" transform="translate(0,0)"/>
<path d="" fill="#000000" transform="translate(0,0)"/>
<path d="" fill="#000000" transform="translate(0,0)"/>
<path d="" fill="#000000" transform="translate(0,0)"/>
<path d="" fill="#000000" transform="translate(0,0)"/>
<path d="" fill="#000000" transform="translate(0,0)"/>
<path d="" fill="#000000" transform="translate(0,0)"/>
<path d="" fill="#000000" transform="translate(0,0)"/>
<path d="" fill="#000000" transform="translate(0,0)"/>
<path d="" fill="#000000" transform="translate(0,0)"/>
<path d="" fill="#000000" transform="translate(0,0)"/>
<path d="" fill="#000000" transform="translate(0,0)"/>
<path d="" fill="#000000" transform="translate(0,0)"/>
<path d="" fill="#000000" transform="translate(0,0)"/>
<path d="" fill="#000000" transform="translate(0,0)"/>
<path d="" fill="#000000" transform="translate(0,0)"/>
<path d="" fill="#000000" transform="translate(0,0)"/>
<path d="" fill="#000000" transform="translate(0,0)"/>
<path d="" fill="#000000" transform="translate(0,0)"/>
<path d="" fill="#000000" transform="translate(0,0)"/>
<path d="" fill="#000000" transform="translate(0,0)"/>
<path d="" fill="#000000" transform="translate(0,0)"/>
<path d="" fill="#000000" transform="translate(0,0)"/>
<path d="" fill="#000000" transform="translate(0,0)"/>
<path d="" fill="#000000" transform="translate(0,0)"/>
<path d="" fill="#000000" transform="translate(0,0)"/>
<path d="" fill="#000000" transform="translate(0,0)"/>
<path d="" fill="#FFFFFF" transform="translate(0,0)"/>
<path d="" fill="#FFFFFF" transform="translate(0,0)"/>
</svg>
