<?xml version="1.0" standalone="no"?>
<!DOCTYPE svg PUBLIC "-//W3C//DTD SVG 20010904//EN"
 "http://www.w3.org/TR/2001/REC-SVG-20010904/DTD/svg10.dtd">
<svg version="1.0" xmlns="http://www.w3.org/2000/svg"
 width="266.000000pt" height="231.000000pt" viewBox="0 0 266.000000 231.000000"
 preserveAspectRatio="xMidYMid meet">

<g transform="translate(0.000000,231.000000) scale(0.100000,-0.100000)"
fill="#000000" stroke="none">
<path d="M1192 2300 c-281 -40 -545 -178 -721 -376 -113 -127 -213 -318 -251
-477 -27 -111 -26 -137 3 -137 20 0 24 9 43 99 27 123 108 295 191 406 124
167 317 309 507 375 251 86 535 78 785 -23 121 -49 222 -119 336 -232 61 -60
133 -143 159 -182 51 -79 126 -247 145 -329 18 -76 29 -164 20 -164 -4 0 -34
34 -66 75 -43 56 -63 75 -78 73 -11 -2 -20 -11 -20 -21 0 -25 184 -257 204
-257 19 1 206 235 206 259 0 9 -9 17 -21 19 -15 2 -36 -17 -84 -78 -34 -44
-66 -80 -70 -80 -4 0 -10 24 -14 53 -22 173 -100 373 -196 508 -218 306 -538
479 -910 494 -58 2 -133 0 -168 -5z"/>
<path d="M1230 2125 c-112 -32 -206 -109 -256 -211 -30 -61 -34 -95 -38 -323
-1 -71 0 -74 32 -100 18 -15 44 -50 57 -78 14 -28 50 -74 80 -102 59 -56 66
-77 41 -134 -20 -48 -45 -64 -108 -70 -126 -12 -240 -95 -296 -215 -27 -57
-27 -58 -27 -287 l0 -230 604 -3 c438 -1 608 1 617 9 17 14 20 328 4 423 -27
163 -158 289 -319 303 -52 5 -65 10 -86 35 -13 16 -29 47 -35 69 l-11 39 60
56 c36 33 71 77 87 109 14 30 36 61 49 69 49 32 59 158 18 214 -13 17 -22 52
-27 95 -10 101 -41 172 -98 229 -93 94 -232 135 -348 103z m208 -72 c120 -57
182 -155 182 -287 l0 -61 -26 33 c-33 42 -73 62 -123 62 -27 0 -63 13 -115 40
-94 50 -159 65 -215 50 -47 -12 -96 -50 -117 -91 -36 -70 -39 6 -3 89 26 61
114 143 180 169 79 32 165 30 237 -4z m-118 -258 c64 -30 108 -45 136 -45 47
0 86 -25 110 -72 14 -28 19 -30 55 -25 35 5 42 2 51 -18 16 -36 2 -94 -26
-105 -15 -5 -35 -32 -54 -72 -37 -76 -44 -85 -104 -131 -148 -112 -368 -35
-432 152 -7 20 -23 41 -36 48 -31 15 -40 32 -40 75 0 33 20 68 39 68 4 0 19
27 34 59 57 124 114 138 267 66z m133 -610 c8 -22 16 -47 18 -55 3 -13 -17
-15 -130 -18 -74 -1 -141 0 -147 2 -10 4 -10 13 1 43 7 21 16 45 18 53 4 12
25 15 115 15 l111 0 14 -40z m-253 -355 c84 -176 111 -225 126 -225 20 0 35
26 167 300 l72 150 50 -3 c98 -6 193 -73 247 -174 21 -40 23 -57 26 -246 l3
-202 -563 2 -563 3 -3 145 c-3 151 8 253 34 302 39 75 122 142 204 165 89 24
82 33 200 -217z m40 183 c0 -52 -9 -93 -19 -93 -6 1 -61 119 -61 133 0 4 18 7
40 7 l40 0 0 -47z m104 39 c3 -4 10 -64 17 -133 11 -114 11 -128 -6 -172 -10
-26 -21 -47 -25 -47 -4 0 -19 26 -32 58 -25 57 -25 57 -12 172 7 63 13 118 14
123 0 10 38 9 44 -1z m156 4 c0 -2 -16 -39 -36 -82 -41 -89 -46 -86 -57 24
l-7 62 50 0 c28 0 50 -2 50 -4z"/>
<path d="M99 1060 c-96 -124 -111 -155 -72 -155 15 0 40 24 82 78 34 42 65 77
70 77 5 0 11 -26 15 -58 31 -277 195 -569 418 -744 192 -151 420 -239 660
-254 233 -14 509 67 718 209 148 102 320 316 394 492 63 152 94 316 62 328
-22 9 -30 -10 -49 -105 -22 -109 -91 -276 -154 -370 -126 -191 -330 -355 -531
-428 -405 -148 -844 -54 -1146 245 -123 121 -196 235 -262 406 -31 80 -72 265
-61 276 3 2 33 -32 67 -76 61 -80 91 -98 104 -65 8 20 -182 264 -205 264 -9 0
-58 -54 -110 -120z"/>
</g>
</svg>
